<?xml version="1.0" encoding="utf-8"?>
<!-- Generator: Adobe Illustrator 26.5.1, SVG Export Plug-In . SVG Version: 6.00 Build 0)  -->
<svg version="1.1" id="Capa_1" xmlns="http://www.w3.org/2000/svg" xmlns:xlink="http://www.w3.org/1999/xlink" x="0px" y="0px"
	 viewBox="0 0 472 288" style="enable-background:new 0 0 472 288;" xml:space="preserve">
<g>
	<path d="M449.6,56.6c-2.9,3.9-5.3,8.2-8.7,11.6c-60.5,61-121.1,121.8-181.7,182.7c-1.3,1.3-2.6,2.7-4.1,3.8
		c-5.9,4.8-13.9,4.8-19.9,0c-1.1-0.9-2.2-1.9-3.2-3C170.4,189.9,108.8,128,47.2,66.1c-5-5-7.8-10.4-5.6-17.6
		c3.1-10.4,15.4-14.6,24.2-8.3c1.7,1.2,3.2,2.8,4.7,4.3c57,57.3,114,114.6,171,171.9c1.1,1.1,2,2.5,4.7,4.4c0.8-1.4,1.4-3,2.5-4.1
		C305.9,159,363.2,101.5,420.5,43.9c6.6-6.6,12.9-8.2,19.7-5.3c4.9,2.1,7.2,6.3,9.4,10.8C449.6,51.8,449.6,54.2,449.6,56.6z"/>
</g>
</svg>
