<svg xmlns="http://www.w3.org/2000/svg" viewBox="0 0 262.86 261.5"><g id="Capa_2" data-name="Capa 2"><g id="Capa_1-2" data-name="Capa 1"><path d="M0,54.45c1.41-4.1,2.23-8.52,4.33-12.22,6.24-11,16-16.61,28.67-16.69,19-.13,38-.06,57,0,4.42,0,7.39,2.67,7.43,6.46s-3.1,6.57-7.59,6.57c-18.65,0-37.3,0-55.95,0-10.16,0-17.55,5.52-20.08,15a23.85,23.85,0,0,0-.66,6.09q0,83.79,0,167.58c0,10.46,5.23,17.79,14.57,20.38a25.08,25.08,0,0,0,6.58.81q90.35.06,180.67,0c12.81,0,21.13-8.39,21.15-21.27q0-27.85,0-55.69c0-3.74,1.95-6.48,5-7.16a6.49,6.49,0,0,1,8,6.18c.13,5.21.06,10.43.05,15.65,0,14.8.18,29.6-.14,44.39-.35,16.37-14.26,30.13-30.64,30.83-1.2.05-2.39.1-3.59.1q-90.21,0-180.42,0c-13.17,0-23.4-5.28-30-16.72-2.11-3.69-2.93-8.11-4.34-12.2Z"/><path d="M225.88,0a28.84,28.84,0,0,1,19.47,7.58c3,2.77,5.92,5.7,8.77,8.65,11.44,11.85,11.67,29,.59,41.19-.69.76-1.42,1.49-2.14,2.21Q195.95,116.26,139.36,172.9a15.9,15.9,0,0,1-7.39,4.29c-17.06,4.65-34.08,9.41-51.11,14.15-2.27.63-4.48,1.09-6.7-.19-2.73-1.58-3.86-4.44-2.89-8,4-14.66,8.46-29.22,12-44,2.1-8.84,6.41-15.62,12.85-22,36-35.58,71.75-71.49,107.52-107.34C209.77,3.67,217,.13,225.88,0ZM198.12,35l-94.9,94.91L133,159.63l94.93-94.92Zm9.1-10.7c10.6,10.62,20.78,20.8,31.24,31.29,1.87-2,3.88-4.06,5.85-6.18a33.83,33.83,0,0,0,2.34-2.72c4.07-5.44,4.21-13.88-.18-19.08a85.7,85.7,0,0,0-11-11c-5-4.14-11.16-4.82-16.77-1.58C214.42,17.41,210.91,21.18,207.22,24.25ZM96.1,142.4C93,153.52,90,164.58,86.79,176.09l33.65-9.35C112.25,158.55,104.29,150.58,96.1,142.4Z"/></g></g></svg>