<?xml version="1.0" encoding="utf-8"?>
<!-- Generator: Adobe Illustrator 26.5.1, SVG Export Plug-In . SVG Version: 6.00 Build 0)  -->
<svg version="1.1" id="Capa_1" xmlns="http://www.w3.org/2000/svg" xmlns:xlink="http://www.w3.org/1999/xlink" x="0px" y="0px"
	 viewBox="0 0 253.4 253.4" style="enable-background:new 0 0 253.4 253.4;" xml:space="preserve">
<style type="text/css">
	.st0{fill:#525CE0;}
	.st1{fill:#FFFFFF;}
</style>
<g id="Capa_2_00000040551244893986186970000014463200069848423860_">
	<g id="Capa_1-2">
		<circle class="st0" cx="126.7" cy="126.7" r="126.7"/>
		<path class="st1" d="M198,127.8c-1.2,3.6-3.7,4.9-7.4,4.8c-18.8-0.1-37.5,0-56.3-0.1c-1.4,0-1.8,0.4-1.8,1.8
			c0.1,18.8,0,37.5,0.1,56.3c0,3.7-1.2,6.3-4.8,7.5h-2.2c-3.6-1.2-4.9-3.7-4.9-7.5c0.1-18.7,0-37.3,0-56v-2H62.1
			c-3.6,0-5.9-1.6-6.7-4.7c-0.7-3.2,1.3-6.3,4.5-7c0.2,0,0.4-0.1,0.6-0.1c0.7-0.1,1.4-0.1,2.1-0.1h58.1v-1.9c0-18.9,0-37.8,0-56.7
			c0-3.6,1.7-5.9,4.7-6.6c3.2-0.7,6.3,1.3,7,4.5c0,0.2,0.1,0.4,0.1,0.6c0.1,0.7,0.1,1.4,0.1,2.1v58.1h1.8c18.7,0,37.4,0.1,56.2,0
			c3.7,0,6.3,1.2,7.4,4.9L198,127.8z"/>
	</g>
</g>
</svg>
