<?xml version="1.0" encoding="utf-8"?>
<!-- Generator: Adobe Illustrator 26.5.1, SVG Export Plug-In . SVG Version: 6.00 Build 0)  -->
<svg version="1.1" id="Capa_1" xmlns="http://www.w3.org/2000/svg" xmlns:xlink="http://www.w3.org/1999/xlink" x="0px" y="0px"
	 viewBox="0 0 398.3 457.2" style="enable-background:new 0 0 398.3 457.2;" xml:space="preserve">
<g>
	<path d="M34,387c-1.7,10.7-3.5,21.3-5.3,31.9c-1.1,6.3,1.1,9.1,7.4,9.1c107.6,0,215.3,0,322.9,0c6.1,0,8.4-2.9,7.4-8.9
		c-5.8-33.9-11.6-67.7-17.3-101.6c-1.5-9.2-6.3-15.1-15.5-17.7c-13-3.7-25.9-7.8-38.9-11.8c-1.1-0.3-2.3-0.6-3.9-1
		c0,10.3-0.1,20.2,0.1,30.1c0,0.8,1.6,1.9,2.6,2.2c19.7,6.6,27.8,27.7,17.6,45.6c-6.3,11.1-20.2,17.1-32.9,14.4
		c-13.1-2.9-23-13.9-24.2-26.9c-1.3-15.6,7-28.2,21.9-33c2.2-0.7,2.9-1.7,2.9-3.9c-0.1-9.9,0-19.7-0.1-29.6c0-1.2-1.2-3-2.2-3.4
		c-5.9-2-11.9-3.7-18.3-5.6c-1.7,3.9-3.4,7.6-4.9,11.4c-16.3,41.8-32.5,83.6-48.7,125.4c-1.3,3.5-2.2,7.6-7,7.6
		c-5,0.1-5.9-4.2-7.3-7.8c-17.1-43.7-34.1-87.5-51.2-131.2c-0.7-1.7-1.5-3.3-2.5-5.3c-6.4,1.9-12.6,3.7-18.8,5.7
		c-0.7,0.2-1.3,1.4-1.7,2.2c-0.3,0.5,0,1.3-0.1,2c-0.8,7-0.3,12.1,8.5,15c10,3.3,15,12.5,16,23c1.7,18.8,3.1,37.7,4.4,56.6
		c0.6,9.1-5.2,15.7-14.2,16.6c-2.8,0.3-5.6,0.3-8.4,0c-3.8-0.4-6-2.9-5.8-6.3c0.2-3.2,2.5-5.3,6.1-5.5c0.1,0,0.3,0,0.4,0
		c10-0.4,10.2-0.5,9.4-10.4c-1.2-16.5-2.5-33-3.9-49.4c-0.8-9.3-7.9-15.7-17.7-16.2c-9.7-0.5-17.7,5.2-18.9,14.5
		c-1.5,12-2.2,24.1-3.2,36.2c-0.6,6.6-1.1,13.3-1.6,19.9c-0.3,4.2,0.7,5.2,4.9,5.3c2,0,4,0,6,0.1c3.3,0.2,5.2,2.2,5.5,5.3
		c0.3,3.1-1.3,5.6-4.5,6.2c-14.1,2.5-25.3-3.1-23.9-18.9c1.6-18.2,2.7-36.4,4.6-54.6c1.3-12.7,8.9-20.8,20.8-24.7
		c2.7-0.9,3.6-1.9,3.4-4.7c-0.2-2.5,0-5,0-8.1c-4.7,1.4-9,2.7-13.3,4c-9.9,3-19.8,6.1-29.8,9c-8.8,2.5-13.7,8.2-15.2,17.1
		c-2.2,12.9-4.4,25.7-6.6,38.6L34,387z M277.1,87.6c-0.4-3.6-0.2-7.2-0.4-10.8c-1.1-19.9-15.4-34.2-35.3-34.4
		c-29.1-0.3-58.3-0.2-87.4,0c-20.1,0.2-35,14.5-35.5,34.6c-0.5,20.8-0.1,41.6-0.1,62.5c3.4,1.1,6.8,2.3,10.6,3.5c0-1.6,0-3,0-4.4
		c0-13.9,0-27.7,0-41.6c0.1-15.9,10-25.9,25.9-26.1c3.5,0,6.9,0.2,10.4,0c8.3-0.5,15.6,1.7,22.2,7.1c6.2,5,14.1,5,20.3,0
		c6.6-5.4,13.9-7.6,22.2-7.1c3.4,0.2,6.9,0,10.4,0c15.9,0.2,25.9,10.2,25.9,26.1c0.1,13.7,0,27.5,0,41.2c0,1.5,0,2.9,0,4.8
		c3.6-1.1,6.9-2.2,10.6-3.4c0-1.3,0-2.8,0-4.2c0-6.3-0.1-12.5,0-18.8L277.1,87.6z M288.7,116.6c0.1,5.9-0.1,11.7,0.1,17.6
		c0.1,1.6,1.1,3.5,2.2,4.6c3.5,3.1,6.1,6.7,6.5,11.5c0.3,4.5,0.7,9.1,0.2,13.5c-1,9.3-7.6,15.2-17.6,15.7c-3,0.2-4,1.2-4.6,4
		c-3.3,14.9-10.3,28.1-19.9,40c-0.8,1-1.6,2-2,2.6c6.3,4,12.9,7.3,18.4,11.9c10.1,8.5,16.1,19.7,17.9,32.9c0.4,2.8,1.6,3.7,4,4.4
		c14.6,4.3,29.2,8.8,43.9,13.2c12.8,3.9,20.5,12.3,22.7,25.6c6,34.9,12,69.8,17.9,104.7c1.5,9-3.3,16.9-12,20.2
		c-0.7,0.3-1.4,0.6-2.1,1c-111.2,0-222.5,0-333.7,0c-0.8-0.4-1.6-0.8-2.5-1.1c-8.2-3.2-13-10.9-11.7-19.7
		c1.7-11.3,3.6-22.6,5.9-33.8l5-28.7c0.6-5.5,1.6-11.1,2.5-16.6c1.5-8.9,3-17.9,4.7-26.8c2.3-12.6,9.7-20.8,21.8-24.6
		c14.8-4.6,29.7-9.1,44.6-13.5c2.4-0.7,3.6-1.6,4.1-4.4c3.4-20.4,14.7-34.6,33.8-42.7c0.7-0.3,1.5-0.6,2.2-0.9
		c0.2-0.1,0.4-0.3,0.2-0.2c-4.6-7.4-9.8-14.4-13.6-22c-3.5-7.1-5.8-14.8-8.3-22.3c-0.7-2-1.3-3-3.6-3.2
		c-12.6-0.9-18.7-7.7-18.7-20.6c0-6.3-0.7-13.3,4.6-17.5c4.9-4,4.8-8.5,4.8-13.7c-0.1-16-0.1-32,0-48c0.1-25.8,14.7-43.6,39.9-48.8
		c0.4-0.1,0.6-0.4,1-0.6c33.5,0,67.1,0,100.6,0c7.7,2,15.3,4.2,21.7,9.2c12,9.3,18.6,21.3,19.1,36.6c0.1,3.6,0.1,7.2,0,10.8
		L288.7,116.6z M265,159.2c-8.9-1.1-10.8-3.3-10.8-11.9c0-16.9,0-33.9,0-50.8c0-6.7-3.4-12.6-9-12.9c-10.8-0.6-21.7-3-31.7,4.8
		c-9.6,7.4-21,7.5-31,0.6c-6.7-4.6-13.4-6.7-21.2-6c-2,0.2-4,0-6,0c-9.8,0.1-14.4,4.6-14.4,14.5c0,16.4,0,32.8,0,49.2
		c0,9.3-1.5,11.1-11.4,12.7c0.8,8.1,0.6,16.4,2.5,24.3c3.3,14.1,11,26.1,20.8,36.8c19.3,21.1,50.4,27,73.3,12.6
		C252.9,216.3,266.7,191.9,265,159.2z M236.9,271.1c-6.8-7.8-6.2-17.1-6.4-26.4c-22.3,10.8-44,10.7-66.3-0.1
		c0.5,9.8,0.3,18.8-6,26.5c12.8,9.6,25.2,19,37.8,28.2c0.7,0.5,2.4,0.5,3.1,0C211.6,290.2,224,280.8,236.9,271.1z M284.4,368.1
		c10.5,0.1,19.2-8.3,19.3-18.7c0.1-10.5-8.3-19.1-18.8-19.2c-10.5-0.1-19.1,8.4-19.1,18.9C265.7,359.4,274.1,367.9,284.4,368.1z
		 M197.5,398.4c1.9-4.9,3-8.9,4.9-12.4c5.3-10.1,6.1-20.3,2.7-31.1c-0.7-2.1-0.8-4.4-1.2-6.7c-1.4-8.3-1.4-8.3-9.9-7.8
		c-0.4,0-0.7,0.3-1.3,0.5c-1.3,6.9-2.6,13.8-3.8,20.7c-0.6,3.3-2.2,6.9-1.3,9.8C190.2,380.2,193.8,388.7,197.5,398.4z M243,237.2
		c0,6.7-0.1,13.1,0.1,19.4c0.1,1.8,1,3.5,1.8,5.2c0.8,1.9,2.2,2.4,4.4,2.3c3.2-0.2,6.6,0,9.8,0.8c6.1,1.5,12.1,3.5,18.3,5.4
		C276.4,255,260.6,239.8,243,237.2z M152.9,237.1c-17.9,2.4-34,17.8-35.1,33.1c6.3-1.9,12.4-3.8,18.7-5.5c2.5-0.7,5.4-1.4,7.8-0.8
		c4.2,1,6.5-0.7,6.9-4.2C152.1,252.3,152.4,244.8,152.9,237.1z M185.6,306.7c-11.2-8.4-21.8-16.3-32.3-24.2
		c-0.2,0.2-0.4,0.3-0.6,0.5c4.3,10.6,8.6,21.3,13,32.2C172.3,312.4,178.6,309.7,185.6,306.7z M209.5,306.7c7,3,13.4,5.7,20,8.5
		c4.4-11,8.7-21.6,13-32.3c-0.2-0.1-0.4-0.3-0.7-0.4C231.2,290.4,220.6,298.4,209.5,306.7z M211,320.4c-4-1.7-7.8-3.5-11.8-5
		c-0.9-0.4-2.1-0.4-3-0.1c-4,1.6-8,3.4-11.9,5.1C188.2,331,205.6,332.1,211,320.4z M109.6,150.9c-0.3,1-0.5,1.5-0.5,2
		c-0.1,2.7-0.1,5.3,0,8c0.2,5.4,3.2,7.5,8.9,6.3c0-4.9,0-9.9,0-15C115.1,151.7,112.5,151.3,109.6,150.9z M277.1,152.1
		c0,5.3,0,10.2,0,16.3c2.9-1.1,6-1.3,7.3-2.9c3.3-4.3,1.6-9.5,1.4-14.6C282.6,151.3,280,151.7,277.1,152.1z M178.3,348.1
		c0.2,0,0.5,0,0.7,0c0.6-3.3,1.3-6.5,1.7-9.8c0.1-1.2-0.1-2.7-0.8-3.6c-2.1-2.8-4.4-5.3-6.7-7.9c-0.5-0.5-1.5-0.6-2.3-0.9
		c-0.1,0.8-0.5,1.8-0.2,2.5C173.3,335,175.8,341.5,178.3,348.1z M216.3,349.1c3-7.6,5.6-14.4,8.2-21.1c0.2-0.5-0.3-1.3-0.5-2
		c-0.7,0.2-1.5,0.3-2,0.7c-5.6,5.3-10.1,10.9-6.3,19.3C215.9,346.6,215.9,347.4,216.3,349.1z"/>
</g>
</svg>
