<?xml version="1.0" encoding="utf-8"?>
<!-- Generator: Adobe Illustrator 26.5.1, SVG Export Plug-In . SVG Version: 6.00 Build 0)  -->
<svg version="1.1" id="Capa_1" xmlns="http://www.w3.org/2000/svg" xmlns:xlink="http://www.w3.org/1999/xlink" x="0px" y="0px"
	 viewBox="0 0 404.4 414.6" style="enable-background:new 0 0 404.4 414.6;" xml:space="preserve">
<g>
	<path d="M395.5,202.8c-2,7.5-5.4,14.3-12.9,17.6c-4,1.7-8.6,2.6-13,2.9c-7.9,0.5-15.8,0-23.8,0.2c-1.9,0.1-4.2,1-5.5,2.3
		c-8.8,8.5-17.3,17.2-25.9,25.8c-2.9,2.9-6,5.1-10.4,3.4c-4.5-1.8-5.2-5.7-5.2-9.9c0.1-7,0-14.1,0-21.6c-1.7,0-3.2,0-4.7,0
		c-27.4,0-54.8,0-82.2,0c-13,0-22.1-6.7-25-18.6c-0.7-2.9-0.7-6-0.7-9c0-50.8,0.2-101.6-0.2-152.4c-0.1-14.6,5.1-25.3,20.7-29.3
		c56.1,0,112.2,0,168.3,0c2.3,0.9,4.7,1.5,6.9,2.6c7.5,3.6,11.3,10.1,13.5,17.8C395.5,90.5,395.5,146.7,395.5,202.8z M314.9,227.9
		c1.5-1.4,2.4-2.2,3.3-3c4.4-4.4,8.8-8.6,13-13.1c3.1-3.3,6.6-4.6,11.1-4.5c8.5,0.2,17.1,0.1,25.7,0.1c8.9,0,11.5-2.6,11.5-11.4
		c0-51.4,0-102.9,0-154.3c0-8.8-2.6-11.4-11.5-11.4c-51.4,0-102.9,0-154.3,0c-8.6,0-11.3,2.7-11.3,11.2c0,51.6,0,103.1,0,154.7
		c0,8.7,2.6,11.3,11.2,11.3c30.4,0,60.9,0,91.3,0c7.2,0,10.1,2.8,10.1,10C314.9,220.6,314.9,223.8,314.9,227.9z"/>
	<path d="M8.9,174.8c5.1,0,10.3,0,15.8,0c0.1,2,0.2,3.6,0.2,5.2c0,64.2,0,128.3,0,192.5c0,1.9,0.1,3.8,0.5,5.6
		c0.6,3.3,2.7,5.4,6,5.9c1.8,0.3,3.7,0.5,5.6,0.5c83.3,0,166.5,0,249.8,0c0.6,0,1.3,0,1.9,0c7-0.1,10.1-3.1,10.1-10.2
		c0-19.2,0-38.5,0-57.7c0-13.5,0-26.9,0-40.4c0-1.4,0-2.7,0-4.3c5.4,0,10.5,0,16.1,0c0,1.7,0,3.1,0,4.6c0,31.6-0.3,63.1,0.1,94.7
		c0.2,14.6-5.1,25.3-20.7,29.3c-88.3,0-176.6,0-265,0c-2.3-0.9-4.7-1.6-6.9-2.6c-7.5-3.6-11.3-10.1-13.5-17.8
		C8.9,311.7,8.9,243.3,8.9,174.8z"/>
	<path d="M8.9,115.2c2-7.5,5.4-14.3,12.9-17.6c4-1.7,8.6-2.7,13-2.9c11.3-0.4,22.6-0.1,34-0.1c1.3,0,2.7,0,4.5,0c0-5.5,0-10.6,0-16
		c5.5,0,10.6,0,16.1,0c0,5.3,0,10.3,0,15.7c21.6,0,42.8,0,64.3,0c0-5.2,0-10.3,0-15.7c5.4,0,10.5,0,16,0c0,15.8,0,31.6,0,47.7
		c-5.1,0-10.2,0-15.7,0c0-4.9,0-10,0-15.4c-21.6,0-42.9,0-64.6,0c0,5.2,0,10.3,0,15.5c-5.5,0-10.6,0-16.1,0c0-5.3,0-10.4,0-15.8
		c-5.7,0-10.9,0-16.2,0c-7.7,0-15.3-0.1-23,0c-5.1,0.1-8.5,2.4-8.7,7c-0.4,8.2-0.1,16.5-0.1,25.2c48.1,0,96.1,0,144.4,0
		c0,5.5,0,10.6,0,16.1c-1.4,0-2.7,0-4.1,0c-48.6,0-97.1,0-145.7,0.1c-5,0-8.8-1.4-11-6.1C8.9,140.4,8.9,127.8,8.9,115.2z"/>
	<path d="M250.5,295.8c-7.4,0-14.8,0-22.2,0c-6.9,0-10-2.9-10-9.8c-0.1-9.5-0.1-19.1,0-28.6c0.1-6.8,3.2-9.8,10-9.9
		c14.8-0.1,29.6-0.1,44.5,0c6.8,0,10,3.1,10,9.9c0.1,9.5,0.1,19.1,0,28.6c-0.1,6.8-3.1,9.7-10,9.8
		C265.3,295.9,257.9,295.8,250.5,295.8z M266.4,264c-10.8,0-21.2,0-31.7,0c0,5.3,0,10.4,0,15.5c10.7,0,21.2,0,31.7,0
		C266.4,274.2,266.4,269.2,266.4,264z"/>
	<path d="M250.1,368.3c-7.4,0-14.8,0.1-22.2,0c-6.5-0.1-9.5-3-9.6-9.4c-0.1-9.8-0.1-19.6,0-29.4c0.1-6.3,3.2-9.4,9.6-9.5
		c15.1-0.1,30.1-0.1,45.2,0c6.4,0,9.5,3.1,9.6,9.5c0.1,9.8,0.1,19.6,0,29.4c-0.1,6.4-3.1,9.3-9.6,9.4
		C265.5,368.3,257.8,368.3,250.1,368.3z M266.4,336.4c-10.8,0-21.2,0-31.7,0c0,5.3,0,10.4,0,15.6c10.7,0,21.2,0,31.7,0
		C266.4,346.7,266.4,341.7,266.4,336.4z"/>
	<path d="M73.4,223.3c-7.5,0-15.1,0.1-22.6,0c-6.6-0.1-9.5-2.9-9.5-9.4c-0.1-9.8-0.1-19.6,0-29.4c0.1-6.2,3-9.3,9.3-9.4
		c15.2-0.1,30.4-0.1,45.7,0c6.4,0,9.4,3.3,9.4,9.7c0.1,9.7,0.1,19.4,0,29.1c0,6.4-3,9.4-9.5,9.5C88.5,223.4,80.9,223.3,73.4,223.3z
		 M89.2,207.2c0-5.5,0-10.6,0-15.6c-10.8,0-21.3,0-31.7,0c0,5.4,0,10.5,0,15.6C68.2,207.2,78.6,207.2,89.2,207.2z"/>
	<path d="M73.4,295.8c-7.5,0-15.1,0.1-22.6,0c-6.6-0.1-9.5-2.9-9.5-9.4c-0.1-9.8-0.1-19.6,0-29.4c0.1-6.2,3-9.4,9.2-9.4
		c15.2-0.1,30.4-0.1,45.7,0c6.4,0,9.4,3.2,9.4,9.7c0.1,9.7,0.1,19.4,0,29.1c0,6.5-3,9.5-9.5,9.5C88.5,295.9,81,295.8,73.4,295.8z
		 M89.3,264c-10.7,0-21.2,0-31.7,0c0,5.3,0,10.5,0,15.6c10.7,0,21.1,0,31.7,0C89.3,274.3,89.3,269.3,89.3,264z"/>
	<path d="M161.9,295.8c-7.5,0-15.1,0.1-22.6,0c-6.5-0.1-9.4-3.1-9.5-9.5c-0.1-9.7-0.1-19.4,0-29.1c0-6.4,3-9.6,9.4-9.7
		c15.2-0.1,30.4-0.1,45.7,0c6.2,0.1,9.2,3.2,9.2,9.4c0.1,9.8,0.1,19.6,0,29.4c-0.1,6.5-3,9.3-9.5,9.4
		C177,295.9,169.4,295.8,161.9,295.8z M146,279.6c10.7,0,21.2,0,31.7,0c0-5.4,0-10.5,0-15.6c-10.7,0-21.1,0-31.7,0
		C146,269.2,146,274.3,146,279.6z"/>
	<path d="M161.8,368.3c-7.4,0-14.8,0-22.3,0c-6.9-0.1-9.8-3-9.8-10c0-9.4,0-18.9,0-28.3c0-6.8,3-9.9,9.9-10
		c14.8-0.1,29.7-0.1,44.5,0c6.9,0,9.9,3,9.9,9.9c0.1,9.6,0.1,19.1,0,28.7c0,6.8-2.9,9.6-9.6,9.7
		C176.9,368.3,169.4,368.3,161.8,368.3z M146,336.4c0,5.3,0,10.4,0,15.6c10.7,0,21.3,0,31.7,0c0-5.4,0-10.5,0-15.6
		C167.1,336.4,156.7,336.4,146,336.4z"/>
	<path d="M169.8,175.2c0,5.5,0,10.5,0,15.9c-7.9,0-15.6,0-23.7,0c0,5.5,0,10.5,0,16.1c7.8,0,15.6,0,23.6,0c0,5.6,0,10.6,0,16.1
		c-4.4,0-8.7,0-12.9,0c-6.2,0-12.3,0.1-18.5-0.1c-5.2-0.1-8.4-3.1-8.5-8.1c-0.2-10.6-0.2-21.1,0-31.7c0.1-4.8,2.8-8,7.6-8.2
		C148.1,175,158.8,175.2,169.8,175.2z"/>
	<path d="M266.6,94.6c0-4.8,0-9.1,0-13.5c0-7.8,2.8-10.6,10.7-10.7c9.3,0,18.6,0,27.9,0c6.8,0,9.6,2.9,9.7,9.6c0.1,4.6,0,9.3,0,14.5
		c4.8,0,9.2,0,13.7,0c7.8,0,10.4,2.7,10.4,10.4c0,9.3,0,18.6,0,27.9c0,6.9-3,9.9-9.8,10c-4.6,0.1-9.2,0-14.3,0c0,5,0,9.7,0,14.3
		c-0.1,6.8-3,9.8-9.9,9.9c-9.4,0.1-18.9,0.1-28.3,0c-7-0.1-10-3.1-10.1-10.2c-0.1-4.5,0-9,0-13.9c-4.9,0-9.4,0-13.9,0
		c-7.2-0.1-10.2-3.1-10.3-10.4c0-9.2,0-18.4,0-27.5c0-7.5,2.9-10.4,10.6-10.4C257.3,94.6,261.7,94.6,266.6,94.6z M323,126.7
		c0-2.9,0-5.4,0-7.9c0-2.6,0-5.2,0-8.1c-4.6,0-8.9,0-13.1,0c-8.4,0-11-2.7-11-11.1c0-4.3,0-8.7,0-12.8c-5.7,0-10.8,0-16,0
		c0,4.4,0,8.6,0,12.7c0,8.4-2.7,11.1-11,11.1c-4.3,0-8.7,0-12.8,0c0,5.7,0,10.8,0,16c4.6,0,8.9,0,13.1,0c7.7,0,10.7,3,10.7,10.7
		c0,4.4,0,8.7,0,13.2c5.6,0,10.6,0,16,0c0-4.8,0-9.5,0-14.1c0.1-6.6,3.1-9.7,9.6-9.8C313.1,126.6,317.8,126.7,323,126.7z"/>
</g>
</svg>
