<?xml version="1.0" encoding="utf-8"?>
<!-- Generator: Adobe Illustrator 25.0.1, SVG Export Plug-In . SVG Version: 6.00 Build 0)  -->
<svg version="1.1" id="Capa_1" xmlns="http://www.w3.org/2000/svg" xmlns:xlink="http://www.w3.org/1999/xlink" x="0px" y="0px"
	 viewBox="0 0 479.5 335.8" style="enable-background:new 0 0 479.5 335.8;" xml:space="preserve">
<g>
	<path d="M56.1,268.3c0.7-3.1,1.2-6.3,2-9.4c10.3-43.1,56.3-66.7,97.3-49.9c2.7,1.1,4,0.9,5.9-1.3c41.5-48.3,115.8-48.1,157.3,0.4
		c1.6,1.9,2.7,2.2,5,1.2c43.3-18,91.1,8.5,98.9,54.6c0.6,3.5,0.8,7.1,0.9,10.7c0.1,5.2-3.3,8.7-7.9,8.7c-4.5,0-7.7-3.4-7.9-8.4
		c-0.6-17.3-7.1-31.9-20.7-42.8c-16.5-13.2-35-16-55-9c-0.5,0.2-1,0.5-1,0.5c3.3,9,7.1,17.7,9.4,26.7c2,7.6,2.5,15.5,3.2,23.3
		c0.5,5.7-2.8,9.5-7.7,9.7c-4.7,0.2-8.2-3.4-8.3-9.2c-0.3-15.1-4.1-29.2-11.6-42.4c-18.5-32.2-55-49.3-91.3-42.9
		c-36.5,6.4-65.4,35.5-71.4,72.1c-0.9,5.2-0.8,10.5-1.5,15.7c-0.5,4-3.8,6.7-7.7,6.7c-3.8,0-7.1-2.7-7.8-6.6
		c-0.2-1.2-0.2-2.4-0.2-3.6c0.5-16.1,4.2-31.4,11.7-45.7c0.6-1.1,1.1-2.1,1.8-3.5c-5.9-2.9-12.2-4.2-18.6-4.4
		c-32.2-1.1-57.5,22.3-58.8,54.6c-0.2,3.8-1.2,6.8-4.9,8.4c-3,1.4-5.9,0.8-8.3-1.4c-1.1-1-1.9-2.4-2.8-3.6
		C56.1,274.5,56.1,271.4,56.1,268.3z"/>
	<path d="M240.1,43.8c30.7,0.1,55.7,25.4,55.6,56.2c-0.1,30.7-25.5,55.8-56.2,55.6c-30.7-0.1-55.7-25.4-55.6-56.2
		C184,68.7,209.2,43.7,240.1,43.8z M240.6,139.6c22.4-1,40-19.3,39.1-40.7c-0.9-22.5-19.5-40.1-41.1-39.1
		c-22.2,1.1-39.6,19.4-38.7,40.7C200.7,122.8,219.1,140.5,240.6,139.6z"/>
	<path d="M391.4,147.6c0,22.1-17.8,39.8-39.9,39.8c-22,0-40-18-39.9-39.9c0-21.9,18.1-39.9,40-39.9
		C373.5,107.7,391.4,125.6,391.4,147.6z M375.4,147.6c0-13.2-10.6-24-23.8-24c-13.1,0-24,10.8-24,23.9c0,13.2,10.7,23.9,23.9,23.9
		C364.8,171.5,375.4,160.9,375.4,147.6z"/>
	<path d="M128.6,187.4c-22.1-0.3-39.7-18.4-39.5-40.3c0.3-21.9,18.5-39.7,40.4-39.4c22,0.3,39.7,18.4,39.4,40.4
		C168.6,170.2,150.6,187.7,128.6,187.4z M153,147.9c0.1-13.4-10.7-24.3-24-24.3c-13,0-23.7,10.6-23.9,23.7
		c-0.2,13,10.6,24.1,23.7,24.2C142.1,171.6,152.9,161.1,153,147.9z"/>
</g>
</svg>
