<?xml version="1.0" encoding="utf-8"?>
<!-- Generator: Adobe Illustrator 26.5.1, SVG Export Plug-In . SVG Version: 6.00 Build 0)  -->
<svg version="1.1" id="Capa_1" xmlns="http://www.w3.org/2000/svg" xmlns:xlink="http://www.w3.org/1999/xlink" x="0px" y="0px"
	 viewBox="0 0 404.4 414.6" style="enable-background:new 0 0 404.4 414.6;" xml:space="preserve">
<g>
	<path d="M392.5,238.4c-1.8,6-4.5,11.2-10.6,13.9c-4.6,2.1-9.3,2.1-14.3,0.4c-0.1,0.9-0.3,1.5-0.3,2.2c-1,39.3-2,78.5-3,117.8
		c-0.2,8-3.3,14.3-10.6,17.8c-7.2,3.5-14.2,2.7-20.6-2.2c-0.3-0.2-0.6-0.4-1.2-0.7c-4.2,3.4-9,5.3-14.6,4.9
		c-8.7-0.7-16.4-7.2-17-15.8c-0.9-12.8-1.1-25.7-1.4-38.6c-0.7-27.1-1.4-54.2-2.1-81.4c0-1.2-0.1-2.4-0.2-3.4
		c-3.5,0.2-6.8,0.8-10,0.3c-8.9-1.3-14.9-8.3-15-18c-0.2-23.8-0.3-47.6,0.1-71.4c0.3-15,12.9-26.3,28.7-27
		c13.8-0.6,13.8-0.6,23.7,9.1c2.5,2.5,4.6,5.5,7.1,8.4c5.6-5.2,10.2-9.3,14.6-13.7c2.8-2.9,5.9-4.2,9.9-3.9
		c5.3,0.5,10.7,0.1,15.8,1.4c10.9,2.8,17.4,10.3,20.2,21.1c0.2,0.7,0.5,1.3,0.8,2C392.5,187.3,392.5,212.8,392.5,238.4z
		 M356.5,224.2c0-11.4,0-22.4,0-33.2c4.1,0,7.7,0,11.6,0c0,1.6,0,3,0,4.3c0,13,0,26,0,39c0,5,2.5,7.9,6.5,7.8
		c3.9-0.1,6.1-2.8,6.1-7.8c0-22.8,0-45.6,0-68.4c0-7.8-4.8-14.3-12.4-16.1c-3.7-0.9-7.6-0.7-11.4-0.7c-1.4,0-3.1,0.7-4.2,1.7
		c-5.2,4.6-10.2,9.5-15.2,14.2c-4.2,3.9-6.8,3.9-10.8,0c-3.4-3.3-7.1-6.3-10-9.9c-4.2-5.3-9.4-6.6-15.9-6.2
		c-10.3,0.7-17.4,7.5-17.4,17.8c0,22.2,0,44.4,0,66.5c0,1.4,0,2.8,0.4,4c0.8,3,2.8,4.7,5.9,4.7c3.1,0,5.1-1.7,6-4.6
		c0.4-1.3,0.4-2.7,0.4-4c0-12.9,0-25.8,0-38.7c0-1.3,0-2.6,0-3.7c4.2,0,7.9,0,12,0c0,11.2,0,22.2,0,33.2
		C324.1,224.2,340,224.2,356.5,224.2z M338,251.8c0,1.8,0,3.4,0,5c0,37.7,0,75.3,0,113c0,1.7,0,3.5,0.3,5.2c0.7,4.1,4.5,6.4,8.6,5.5
		c3.8-0.9,5.5-3.5,5.7-8.8c1.2-43.7,2.3-87.5,3.4-131.2c0-1.3,0-2.6,0-4.1c-16,0-31.7,0-47.5,0c-0.1,1-0.2,1.9-0.2,2.7
		c1.1,44.3,2.2,88.7,3.3,133c0,1.2,0.2,2.5,0.6,3.6c1,3.4,3.7,5,7,4.9c3.2-0.1,5.7-1.8,6.5-5.1c0.4-1.8,0.5-3.7,0.5-5.5
		c0-37.9,0-75.8,0-113.8c0-1.5,0-2.9,0-4.5C330.3,251.8,333.9,251.8,338,251.8z"/>
	<path d="M237.3,253c0,2.4,0,4.7,0,7c-0.9,37.4-1.8,74.8-2.9,112.2c-0.1,3.1-0.6,6.5-1.9,9.4c-4.6,10.4-17.7,14.1-27.3,7.9
		c-0.9-0.6-1.8-1.3-2.1-1.4c-4.3,1.5-8,3.6-11.8,4.1c-11.4,1.5-20.7-6.7-21.1-18.2c-0.8-27.4-1.5-54.8-2.2-82.1
		c-0.3-12.1-0.6-24.3-0.9-36.4c0-0.8-0.2-1.7-0.3-2.7c-1,0.2-1.8,0.4-2.6,0.6c-11.3,2.7-22.1-5.1-22.2-16.6
		c-0.3-24.4-0.3-48.8,0-73.2c0.2-14.2,13.1-25.6,28.7-26.2c0.1,0,0.2,0,0.4,0c16.9,0.3,11.6-2,23.3,9.2c2.5,2.4,4.6,5.2,7.2,8.2
		c4.8-4.5,9.2-8.2,13-12.3c3.7-4,7.9-5.3,13.2-5.1c7.4,0.3,14.6,0.3,21.1,4.5c8.5,5.5,13.4,13.2,13.5,23.4
		c0.2,22.9,0.1,45.9,0.1,68.8c0,14.4-9.5,22.1-23.5,19.2C238.7,253,238.3,253,237.3,253z M178,224.2c16.4,0,32.3,0,48.7,0
		c0-11.2,0-22.2,0-33.2c4.1,0,7.7,0,11.7,0c0,1.6,0,2.9,0,4.2c0,12.6,0,25.3,0,37.9c0,1.6-0.1,3.3,0.4,4.8c1,3.1,3.3,4.5,6.6,4.2
		c3.5-0.3,5.5-2.9,5.5-7.6c0.1-22.9,0.1-45.8,0-68.7c0-9.1-7-16.2-16.2-16.6c-2.1-0.1-4.2,0.1-6.3-0.1c-2.5-0.2-4.4,0.6-6.3,2.4
		c-4.9,4.8-9.9,9.4-14.9,14c-3.8,3.5-6.5,3.4-10.3-0.2c-3.5-3.3-7.3-6.4-10.3-10.2c-4.2-5.3-9.2-6.4-15.6-6.1
		c-10.6,0.6-17.6,7.3-17.6,18c0,22,0,44.1,0,66.1c0,1.4,0,2.7,0.3,4.1c0.6,3.1,2.6,4.8,5.7,4.9c3.2,0.1,5.4-1.6,6.2-4.8
		c0.4-1.4,0.3-3,0.3-4.4c0-12.6,0-25.3,0-37.9c0-1.3,0-2.6,0-4c4.1,0,7.8,0,11.9,0C178,202.2,178,213.1,178,224.2z M196.3,251.8
		c4.2,0,7.8,0,11.8,0c0,1.7,0,3.1,0,4.6c0,38,0,76.1,0,114.1c0,1.7,0,3.5,0.5,5.1c0.9,3.4,3.5,5.1,6.9,5.1c3.4-0.1,5.9-1.8,6.7-5.3
		c0.3-1.3,0.5-2.7,0.5-4c1.1-43.8,2.2-87.7,3.2-131.5c0-1.2,0-2.3,0-3.4c-16.2,0-31.9,0-47.5,0c0,3.6-0.1,7,0,10.3
		c0.5,20.3,1,40.6,1.5,60.9c0.6,21.4,1.1,42.8,1.7,64.3c0.2,5.7,3,8.9,7.4,8.8c4.4-0.1,7-3.4,7.1-9.1c0-0.9,0-1.7,0-2.6
		c0-37.5,0-75.1,0-112.6C196.3,255.1,196.3,253.6,196.3,251.8z"/>
	<path d="M71.6,154.8c5.8-5.4,10.4-10.1,15.4-14.2c2.1-1.7,5.2-3.1,7.9-3.1c6.1,0,12.5,0.1,18.3,1.7c11.1,3,19.3,13.9,19.4,25.4
		c0.3,23.5,0.2,47.1,0.1,70.6c0,12.3-10.6,21.9-24.8,17.7c-0.1,0.8-0.3,1.6-0.3,2.4c-1,38.4-2.1,76.8-2.9,115.2
		c-0.2,8.5-2.4,15.8-10.4,19.9c-7.8,4-15.1,2.6-21.4-2.4c-3.7,1.5-7,3.6-10.5,4.2c-12,2.2-22-6.4-22.3-18.9
		c-0.6-21.1-1.1-42.1-1.6-63.2c-0.5-18.5-1-36.9-1.4-55.4c0-0.6-0.1-1.2-0.1-1.5c-3.4,0.2-6.7,0.9-9.9,0.4
		c-8.9-1.3-15.1-8.5-15.1-18c-0.2-23.8-0.2-47.6,0.1-71.4c0.2-14.6,12.7-26.1,28.3-27c14.1-0.8,14.1-0.8,24.1,9.1
		C67.1,148.9,69.2,151.8,71.6,154.8z M108.5,190.9c0,1.5,0,2.8,0,4.2c0,13.1,0,26.3,0,39.4c0,4.8,2.4,7.6,6.2,7.6
		c3.8,0,6.3-2.9,6.3-7.6c0-22.9,0.1-45.8,0-68.7c0-7.5-4.9-14-12.2-15.8c-3.1-0.8-6.4-0.5-9.6-0.8c-3-0.3-5.3,0.6-7.5,2.9
		c-4.6,4.7-9.5,9.1-14.3,13.5c-3.8,3.5-6.5,3.4-10.3-0.2c-3.4-3.3-7.1-6.3-10-9.9c-4.2-5.2-9.2-6.8-15.8-6.4
		c-10.6,0.7-17.5,7.4-17.6,18c0,22,0,44.1,0,66.1c0,1.2-0.1,2.5,0.1,3.7c0.6,3,2.3,4.9,5.5,5.2c3.3,0.3,5.5-1.3,6.4-4.4
		c0.4-1.5,0.5-3.2,0.5-4.8c0-12.6,0-25.3,0-37.9c0-1.3,0-2.6,0-4c4.1,0,7.7,0,11.9,0c0,11.2,0,22.2,0,33.2c16.4,0,32.3,0,48.6,0
		c0-11.2,0-22.2,0-33.3C100.8,190.9,104.5,190.9,108.5,190.9z M78.3,251.8c0,2,0,3.6,0,5.2c0,37.4,0,74.8,0,112.3c0,1.1,0,2.2,0,3.3
		c0.3,5.1,3.1,8.2,7.3,8.2c4.3,0.1,7.2-3.3,7.4-8.5c1.2-44.5,2.3-88.9,3.4-133.4c0-0.8-0.2-1.6-0.3-2.5c-15.9,0-31.6,0-47.4,0
		c-0.1,0.9-0.2,1.7-0.1,2.4c1.2,44.6,2.3,89.2,3.5,133.8c0,1.1,0.2,2.2,0.5,3.3c1.1,3.4,3.7,5,7.1,4.9c3.4-0.1,5.8-2,6.6-5.5
		c0.3-1.7,0.4-3.4,0.4-5.2c0-37.8,0-75.6,0-113.4c0-1.6,0-3.1,0-4.9C70.7,251.8,74.2,251.8,78.3,251.8z"/>
	<path d="M165,71.6c0.8,11.2-2,20.3-10.7,26.9c-8.5,6.5-17.9,7.7-27.7,3.7c-9.6-4-15.5-11.4-16.7-21.8c-1.1-9-1.4-18,3.2-26.4
		c5.9-10.6,18.4-16.1,30.4-13.4c11.7,2.6,20.6,13,21.4,25C165.1,67.9,165,70.1,165,71.6z M153.6,72.4c-0.1,0-0.3,0-0.4,0
		c0-2,0.1-4,0-5.9c-0.6-8.4-7.3-14.6-15.7-14.7c-8.5-0.1-15.6,6.2-16.2,14.6c-0.3,3.9-0.3,7.9,0,11.9c0.6,7.6,6.7,13.7,14.1,14.4
		c8.2,0.8,15.3-3.7,17.3-11.4C153.4,78.4,153.3,75.3,153.6,72.4z"/>
	<path d="M239.4,72.7c-0.8-11,2-20.1,10.5-26.7c8.5-6.7,18.1-7.9,28-3.8c9.6,4,15.5,11.4,16.7,21.9c1,8.9,1.4,17.8-3.1,26.1
		c-5.9,10.8-18.5,16.4-30.6,13.6c-11.8-2.7-20.6-13-21.3-25C239.3,76.5,239.4,74.3,239.4,72.7z M250.8,72.1c0.1,0,0.2,0,0.3,0
		c0,1.9-0.1,3.7,0,5.6c0.6,8.6,7.2,14.9,15.8,14.9c8.7,0.1,15.7-6.3,16.2-15c0.2-3.7,0.2-7.4,0-11.1c-0.5-7.8-6.5-13.9-14.2-14.7
		c-7.9-0.8-15.3,3.9-17.2,11.5C251,66.2,251.1,69.2,250.8,72.1z"/>
	<path d="M43.9,96c-0.7-9.5,1.5-18,8.7-24.6c8.7-7.9,19-9.6,29.7-5.3c11,4.5,16.6,13.4,17.1,25.2c0.3,7.6,0.6,15.3-3.3,22.4
		c-5.9,10.8-18.2,16.6-30.1,14.1c-12.2-2.6-21-12.5-22.1-24.8C43.8,100.7,43.9,98.4,43.9,96z M87.5,96.4c0,0,0.1,0,0.1,0
		c0-2.1,0.2-4.2,0-6.3c-0.7-8.2-7.8-14.5-16.1-14.5c-8.4,0.1-15.3,6.4-15.8,14.6c-0.3,3.8-0.2,7.7,0,11.5
		c0.5,8.3,6.8,14.5,15.1,14.9c8.3,0.4,15.4-5.1,16.7-13.2C87.8,101.1,87.5,98.7,87.5,96.4z"/>
	<path d="M358.9,96.1c0.7,9.7-1.5,18.5-9.1,25.2c-8.5,7.4-18.3,9.2-28.7,5.2c-10.3-4-16.3-11.9-17.4-23c-0.8-8.3-1.2-16.6,2.8-24.4
		c5.9-11.3,18.1-17.1,30.5-14.6c11.7,2.3,20.6,12.3,21.9,24.6C359.1,91.4,358.9,93.8,358.9,96.1z M347.5,96.5c-0.1,0-0.2,0-0.2,0
		c0-1.9,0.1-3.7,0-5.6c-0.4-8.7-7.3-15.3-16-15.3c-8.7,0-15.8,6.8-16.1,15.6c-0.1,3.3-0.1,6.7,0,10c0.3,8,6.2,14.5,14,15.2
		c8.5,0.9,15.7-3.9,17.6-11.9C347.4,102,347.3,99.2,347.5,96.5z"/>
	<path d="M229.4,96c0.5,10.8-2.2,20.2-11.3,26.9c-8.6,6.3-18.1,7.4-27.7,3.2c-9.7-4.2-15.5-11.8-16.4-22.5c-0.8-9-1.2-18,3.7-26.3
		c5.8-9.8,18.4-15.3,29.8-12.8c11.7,2.6,20.7,12.7,21.6,24.4C229.2,91.3,229.3,93.6,229.4,96z M217.7,95.9c-0.1-2.1-0.2-4.2-0.5-6.3
		c-1.1-8.1-7.6-13.9-15.7-14c-8-0.1-14.9,5.6-15.9,13.7c-0.6,4.6-0.6,9.4,0,14c1.1,8.2,7.9,13.5,16.1,13.3
		c8.1-0.2,14.3-5.7,15.4-13.7C217.6,100.6,217.6,98.2,217.7,95.9z"/>
</g>
</svg>
