<?xml version="1.0" encoding="utf-8"?>
<!-- Generator: Adobe Illustrator 26.5.1, SVG Export Plug-In . SVG Version: 6.00 Build 0)  -->
<svg version="1.1" id="Capa_1" xmlns="http://www.w3.org/2000/svg" xmlns:xlink="http://www.w3.org/1999/xlink" x="0px" y="0px"
	 viewBox="0 0 404.4 414.6" style="enable-background:new 0 0 404.4 414.6;" xml:space="preserve">
<style type="text/css">
	.st0{fill:#FFFFFF;}
</style>
<g>
	<path d="M115.6,16.6c1.3,0.5,2.5,1,3.8,1.5c9.2,3.6,14.8,13.3,13.2,22.8c-1.8,10-9.9,17.4-19.8,17.7c-4.4,0.2-8.7,0.2-13.1,0
		c-8.8-0.5-14.8-5.2-18.5-13c-11,2.6-20.6,15-20.8,27.7c-0.3,17.7-0.1,35.5,0,53.2c0,1.1,1.1,2.7,2.1,3.3c5.9,3.5,8.8,8.6,9,15.4
		c1.3,40.5,26.8,71.9,65.9,81.1c44.7,10.6,91.7-20.5,99.5-65.9c0.9-5,1.2-10.2,1.5-15.3c0.4-6.8,3.2-11.9,9.1-15.4
		c1.1-0.6,2.1-2.4,2.1-3.6c0.1-17.4,0.2-34.7,0-52.1c-0.1-12.9-8.3-24.1-20.7-28.7c-3.2,6.7-8.1,11.9-15.8,12.8
		c-6.3,0.7-12.8,0.9-19,0c-9.7-1.4-16.6-9.6-17.1-19.1c-0.6-9.7,5.4-18.4,14.8-21.5c0.8-0.3,1.6-0.6,2.4-0.9c6.2,0,12.5,0,18.7,0
		c8.1,2.5,14.1,7.1,16.6,15.7c0.2,0.8,1.5,1.6,2.4,1.9c19.1,7.6,28.9,22.1,28.9,42.8c0,16.1,0,32.2,0,48.4c0,2.2,0.4,3.5,2.6,4.7
		c6.1,3.4,8.7,8.9,8.7,15.9c-0.2,52-36.5,99-86.9,112.1c-3.6,0.9-7.3,1.7-11,2.3c-1.9,0.3-2.5,1-2.5,2.9c0.1,25.2-0.2,50.5,0.2,75.7
		c0.2,12.8,11.3,22.8,24.2,22.7c12.8-0.1,23.4-10.3,23.7-23.2c0.2-10.7,0-21.5,0.1-32.2c0.1-29.8,20.1-53.4,49.5-58.3
		c21.1-3.6,46.3,7.6,57.2,25.9c6,10.1,9.1,21.2,8.9,33.2c-0.2,9.2-0.1,18.5,0.1,27.7c0,1.4,1,3.3,2.1,4.2
		c11.8,9,16.9,20.7,13.7,35.2c-3.2,14.2-12.5,22.9-26.9,25.9c-0.5,0.1-0.9,0.4-1.4,0.6c-3,0-6,0-9,0c-3.4-1.2-7-2-10.2-3.5
		c-22.8-11-25.7-42.3-5.2-57.3c2.3-1.7,3.2-3.3,3.1-6.1c-0.2-9.4,0.1-18.7-0.1-28.1c-0.2-11.4-6.9-20.4-17-23.4
		c-10-3-20.8,0.8-26.7,9.4c-3,4.4-4.3,9.2-4.3,14.5c0,10.2,0,20.5,0,30.7c-0.2,34.7-27.2,60.3-61.8,58.6
		c-28.9-1.5-53.2-26.9-53.5-56.4c-0.2-24.7-0.1-49.5,0-74.2c0-2.8-0.5-4-3.7-4.5c-51.4-8.7-91.3-52-96.1-104.2
		c-0.3-3.6-0.6-7.2-0.6-10.8c0-6.8,3-12.1,9-15.3c1.9-1,2.2-2.2,2.2-4.1c0-16.4,0-32.7,0-49.1c0-20.4,9.9-34.8,29-42.4
		c0.9-0.4,2.1-1.1,2.4-2c2.5-8.5,8.5-13.2,16.6-15.7C103.1,16.6,109.3,16.6,115.6,16.6z M149.3,281c0,7.6,0,15.2,0,22.9
		c0,4,2.3,6.7,5.5,6.7c3.3,0,5.5-2.6,5.7-6.5c0-0.9,0-1.7,0-2.6c0-14.1,0-28.2,0-42.4c0-5.7,2.5-8.3,8.2-9.2
		c42.5-6.9,71.3-30.7,86.4-71c4-10.7,5.7-22,5.7-33.4c0-3.7-2.3-6.3-5.4-6.4c-3.1-0.1-5.5,2.5-5.7,6.2c0,0.5,0,1,0,1.5
		c-1.5,57.6-53.2,101-109.9,91.7c-27.8-4.5-49.2-19.4-64.7-42.8c-9.7-14.7-14.3-31.1-14.8-48.7c-0.1-5-2.2-7.8-5.6-7.8
		c-3.7,0-5.9,2.9-5.5,8.1c0.4,5.8,0.7,11.8,1.9,17.5c9.3,45.9,44.2,78.7,90.4,85.3c5.4,0.8,7.9,3.6,8,9
		C149.3,266.2,149.3,273.6,149.3,281z M323.7,333.1c0.1-0.7,0.3-1.3,0.3-1.9c-0.1-10,0.6-20-0.3-30c-2.1-22.9-15.8-36.8-36.5-41.5
		c-28.9-6.6-55.8,15.5-56.2,45.2c-0.1,11.4,0.2,22.8-0.2,34.1c-0.2,4.5-1.3,9.2-3.2,13.3c-6.7,15.1-23,23-39.2,19.7
		c-15.8-3.3-27.5-17.4-27.8-33.7c-0.1-5.7,0-11.4,0-16.9c-3.9,0-7.5,0-12,0c0.8,9.6,0.5,19.6,2.8,28.9c5.5,22,27.7,36.3,49.8,33.6
		c23.3-2.9,40.7-22.2,41-45.6c0.2-11.1-0.2-22.2,0.1-33.4c0.5-19.7,15.5-34.7,34.7-35.1c19.3-0.3,34.7,14.1,35.7,33.9
		c0.4,8.5,0.1,17,0.2,25.5c0,1.3,0.1,2.6,0.2,3.9C316.8,333.1,320.2,333.1,323.7,333.1z M340.9,367c0.1-12.3-9.9-22.5-22.2-22.6
		c-12.3-0.1-22.5,9.8-22.7,22.1c-0.1,12.5,9.9,22.8,22.4,22.8C330.7,389.3,340.8,379.3,340.9,367z M106.1,47.2
		C106.1,47.2,106.1,47.2,106.1,47.2c2.2,0,4.5,0.2,6.7-0.1c5-0.5,8.7-4.7,8.7-9.6c0-4.9-3.7-9.2-8.7-9.6c-4.3-0.3-8.7-0.3-13.1,0
		c-5,0.3-8.8,4.5-8.9,9.5c-0.1,5.1,3.7,9.4,8.9,9.8C101.9,47.4,104,47.2,106.1,47.2z M203.4,27.8c-2,0-4-0.1-6,0
		c-5.2,0.4-9.1,4.5-9.2,9.5c-0.1,5.1,3.7,9.5,8.9,9.8c4.2,0.3,8.5,0.3,12.7,0c5.2-0.3,9-4.6,9-9.7c0-5.1-3.9-9.2-9.1-9.6
		C207.6,27.7,205.5,27.8,203.4,27.8z"/>
	<path class="st0" d="M318.2,372.3c3.1,0.1,5.5-2.1,5.7-5.2c0.2-3.2-2.1-5.8-5.3-5.9c-3.1-0.1-5.5,2.1-5.7,5.2
		C312.7,369.7,315.1,372.2,318.2,372.3z"/>
	<path d="M318.2,372.3c-3.2-0.1-5.5-2.6-5.3-5.9c0.2-3,2.6-5.2,5.7-5.2c3.2,0.1,5.5,2.6,5.3,5.9
		C323.7,370.2,321.3,372.4,318.2,372.3z"/>
</g>
</svg>
