<?xml version="1.0" encoding="utf-8"?>
<!-- Generator: Adobe Illustrator 26.5.1, SVG Export Plug-In . SVG Version: 6.00 Build 0)  -->
<svg version="1.1" id="Capa_1" xmlns="http://www.w3.org/2000/svg" xmlns:xlink="http://www.w3.org/1999/xlink" x="0px" y="0px"
	 viewBox="0 0 253.4 253.4" style="enable-background:new 0 0 253.4 253.4;" xml:space="preserve">
<g>
	<path d="M242,57.3c-10.8,10.7-21.5,21.5-32.3,32.2c-41.2,41.2-82.3,82.3-123.5,123.5c-0.6,0.6-1.2,1.3-1.6,1.8
		c-24.6-24.6-49-49-73.2-73.2c5.8-5.8,11.9-11.9,18.1-18.1c18,18,36.2,36.2,54.5,54.5c46.5-46.5,92.9-92.9,139.4-139.4
		c5.7,5.7,11.2,11.2,16.7,16.7c0.6,0.6,1.3,1,1.9,1.5C242,57,242,57.1,242,57.3z"/>
</g>
</svg>
