<?xml version="1.0" encoding="utf-8"?>
<!-- Generator: Adobe Illustrator 26.5.1, SVG Export Plug-In . SVG Version: 6.00 Build 0)  -->
<svg version="1.1" id="Capa_1" xmlns="http://www.w3.org/2000/svg" xmlns:xlink="http://www.w3.org/1999/xlink" x="0px" y="0px"
	 viewBox="0 0 404.4 414.6" style="enable-background:new 0 0 404.4 414.6;" xml:space="preserve">
<g>
	<path d="M47.3,406.1c-10-3.4-13.6-10.5-13.6-21c0.2-91.9,0.1-183.7,0.1-275.6c0-9.1,4.2-15.5,11.9-17.8c0.9-0.3,1.9-0.6,2.9-0.6
		c11.5-0.1,23-0.3,34.4,0.1c1.8,0.1,4.4,2.2,5,4c0.5,1.6-0.7,4.3-2,5.8c-0.9,1-3.2,1.2-4.9,1.2c-9.4,0.1-18.7,0-28.1,0.1
		c-6.6,0-8.1,1.6-8.1,8.2c0,92.1,0,184.2,0,276.3c0,6.5,1.6,8.1,8.2,8.1c61.9,0,123.7,0,185.6,0c6.6,0,8.3-1.6,8.3-8.1
		c0-41.5,0-83,0-124.5c0-1.1,0-2.2,0-4c-1.6,0-3,0-4.4,0c-40.8,0-81.6,0-122.4,0c-12.5,0-19.2-6.6-19.2-19.2
		c0-65.4,0.1-130.7-0.1-196.1c0-10.5,3.6-17.6,13.6-21c58.4,0,116.8,0,175.2,0c10,3.4,13.8,10.5,13.6,21
		c-0.4,16.9-0.1,33.7-0.1,50.6c0,4.1-1.6,6.5-4.7,7c-3.7,0.7-6.5-2.1-6.5-6.7c0-17.4,0-34.7,0-52.1c0-1.1,0.1-2.3-0.1-3.4
		c-0.4-3-2.1-4.7-5.1-5.1c-1.1-0.2-2.2-0.1-3.4-0.1c-54.3,0-108.5,0-162.8,0c-6.8,0-8.3,1.5-8.3,8.3c0,65.7,0,131.5,0,197.2
		c0,6.6,1.6,8.2,8.2,8.2c54.4,0,108.8,0,163.2,0c6.8,0,8.3-1.6,8.3-8.4c0-39.5,0-79,0-118.5c0-6.5,1.6-8.1,8.2-8.1
		c9.9,0,19.7,0,29.6,0c4.4,0,7,2,7.1,5.4c0.1,3.6-2.6,5.8-7.1,5.8c-8.7,0-17.4,0-26.3,0c0,7.5,0,14.7,0,22.5c1.6,0,3.3,0,5,0
		c7.4,0,14.7,0,22.1,0c4,0,6.5,2.4,6.4,5.8c-0.1,3.2-2.5,5.4-6.3,5.4c-9,0.1-17.9,0-27.1,0c0,7.5,0,14.7,0,22.5c1.1,0,2.3,0,3.4,0
		c7.7,0,15.5,0,23.2,0c4.3,0,6.9,2.3,6.8,5.7c-0.1,3.3-2.6,5.5-6.7,5.5c-8.8,0-17.7,0-26.7,0c0,7.5,0,14.8,0,22.5
		c7.8,0,15.5,0,23.2,0c1.2,0,2.5,0,3.7,0c4,0.1,6.5,2.4,6.5,5.7c-0.1,3.3-2.6,5.5-6.6,5.5c-7.6,0-15.2,0-22.8,0c-1.2,0-2.5,0-4.2,0
		c0,7.5,0,14.8,0,22.5c8,0,16.6,0,25.2,0c1.2,0,2.5-0.1,3.7,0.1c2.9,0.6,4.7,2.4,4.7,5.4c0,3-1.7,4.9-4.6,5.6
		c-1.2,0.3-2.5,0.1-3.7,0.1c-23.2,0-46.4,0-69.9,0c0,7.4,0,14.7,0,22.5c1.2,0,2.5,0,3.8,0c22,0,43.9,0,65.9,0c1.1,0,2.3-0.1,3.4,0.1
		c3.1,0.4,5,2.3,5.2,5.4c0.2,3-2.1,5.4-5.3,5.7c-1.1,0.1-2.2,0-3.4,0c-21.8,0-43.7,0-65.5,0c-1.3,0-2.7,0-4.2,0
		c0,11.8,0,23.2,0,35.2c1.2,0,2.4,0,3.5,0c29.8,0,59.6,0,89.4,0c6.1,0,7.9-1.7,7.9-7.7c0-81.1,0-162.2,0-243.4
		c0-6.1-1.7-7.8-7.7-7.9c-9.7,0-19.5,0-29.2,0c-1.1,0-2.3,0.1-3.3-0.2c-3.1-0.7-4.8-2.7-4.6-5.9c0.2-2.9,2-5,5.1-5
		c12.2-0.1,24.5-0.3,36.7,0.2c7.6,0.3,13.8,7.6,14.3,15.5c0.1,1.2,0,2.5,0,3.7c0,80.7,0,161.5,0,242.2c0,13.3-6.5,19.7-19.8,19.7
		c-29.3,0-58.6,0-87.9,0c-1.4,0-2.7,0-4.3,0c0,11.3,0,22.3,0,33.8c1.7,0,3.3,0,4.9,0c18.2,0,36.4,0,54.6,0c5.8,0,7.6-1.8,7.6-7.6
		c0-3-0.1-6,0-9c0.1-3.5,2.4-5.9,5.5-5.9c3.1,0,5.5,2.3,5.7,5.7c0.1,4.1,0.2,8.3,0,12.4c-0.5,8.8-7.9,15.6-17,15.6
		c-19,0.1-37.9,0-56.9,0c-1.4,0-2.7,0-4.7,0c1.3,11-2.6,18.9-13.4,22.5C179.1,406.1,113.2,406.1,47.3,406.1z"/>
	<path d="M202.6,235.9c-23.7,0-47.4,0-71.1,0c-6.1,0-7.9-1.7-7.8-7.7c0.1-8.4-0.1-16.8,0.6-25.1c1.2-13,8.3-22.3,20-27.8
		c5.8-2.7,12.1-4.7,18.1-7.1c4.6-1.9,9.4-3.7,11.9-8.5c1.4-2.6,1.7-4.6-1.2-6.9c-10.2-8-16.7-18.5-17.3-31.5
		c-0.6-12.9-1.1-26.2,1-38.8c3.9-22.8,25.2-37.7,49.2-36.4c21.5,1.1,40.7,19.1,42.6,41.2c1,11.9,0.8,24-0.2,35.9
		c-1,12.3-7.6,22.3-17.3,29.9c-2.3,1.8-2.9,3.6-1.3,5.6c2.2,2.7,4.6,5.6,7.6,7.3c4.1,2.3,8.7,3.6,13.1,5.3c2.7,1,5.4,2,8,3.2
		c14.7,6.5,21.8,18,22.3,33.8c0.2,6.9,0.1,13.7,0.1,20.6c0,5-2,6.9-7.1,6.9C250,235.9,226.3,235.9,202.6,235.9z M186.2,160.4
		c-3.3,10.2-11,14.9-19.9,18.4c-5.8,2.3-11.7,4.3-17.4,6.8c-5.8,2.5-10.1,6.8-12.2,13c-2.9,8.5-1.6,17.2-1.8,25.8
		c45.1,0,89.8,0,134.6,0c0-5.4,0.1-10.5,0-15.6c-0.2-11.8-5.6-20.2-16.8-24.5c-5-1.9-10-3.7-15-5.6c-8.8-3.4-16.3-8.2-19.4-18.1
		C207.6,164,197.1,164,186.2,160.4z M238.5,104.7c-0.1,0-0.3,0-0.4,0c0-4,0.1-8,0-12c-0.7-19.3-15.4-34.7-33.8-35.4
		c-19.8-0.7-35.6,12.7-37.4,32.6c-0.9,9.7-0.8,19.5,0,29.2c1.5,18,15.7,31.8,32.8,32.8c18,1.1,33.6-10.3,37.4-27.8
		C238.3,117.7,238,111.1,238.5,104.7z"/>
</g>
</svg>
