<?xml version="1.0" encoding="utf-8"?>
<!-- Generator: Adobe Illustrator 26.5.1, SVG Export Plug-In . SVG Version: 6.00 Build 0)  -->
<svg version="1.1" id="Capa_1" xmlns="http://www.w3.org/2000/svg" xmlns:xlink="http://www.w3.org/1999/xlink" x="0px" y="0px"
	 viewBox="0 0 253.4 253.4" style="enable-background:new 0 0 253.4 253.4;" xml:space="preserve">
<g>
	<path d="M109.7,9.1c5.5,2,7.1,6.1,7.1,11.7c-0.2,28.9-0.1,57.8,0,86.8c0,3.5-0.6,6.7-3.7,8.7c-1.7,1-3.8,1.8-5.8,1.8
		c-30,0.1-60,0.1-90,0.1c-5.9,0-9.6-3.8-9.6-9.7c0-29.8,0-59.7,0-89.5c0-5,2.7-7.9,6.9-9.8C46.3,9.1,78,9.1,109.7,9.1z M98.4,99.9
		c0-24.3,0-48.4,0-72.7c-0.9,0-1.7,0-2.4,0c-22.5,0-45.1,0-67.6-0.1c-2.2,0-2.6,0.7-2.6,2.7c0.1,22.5,0,44.9,0,67.4
		c0,0.8,0,1.6,0,2.6C50.1,99.9,74.1,99.9,98.4,99.9z"/>
	<path d="M244,111.1c-2,5.3-5.9,7.1-11.5,7.1c-29.1-0.1-58.1-0.1-87.2,0c-3.4,0-6.6-0.7-8.4-3.7c-1-1.7-1.8-3.8-1.8-5.8
		c-0.1-30.1-0.1-60.1-0.1-90.2c0-4.9,2.8-7.7,7-9.4c31.7,0,63.4,0,95.1,0c3.3,1.3,5.6,3.7,6.9,6.9C244,47.7,244,79.4,244,111.1z
		 M225.7,100c0.1-0.8,0.1-1.4,0.1-2c0-22.8,0-45.7,0.1-68.5c0-2-0.8-2.2-2.4-2.2c-22.7,0-45.4,0-68.1,0c-0.7,0-1.5,0.1-2.1,0.1
		c0,24.4,0,48.5,0,72.6C177.4,100,201.4,100,225.7,100z"/>
	<path d="M244,192.9c-1.9,5.4-5.8,7.4-11.4,7.2c-10.3-0.2-20.6-0.1-30.9-0.1c-0.9,0-1.8,0-3.1,0c0,1.1,0,2,0,2.9
		c0,10.8,0,21.5,0,32.3c0,5-2.1,8.3-6,9.7c-6,2.2-12.1-2.1-12.2-8.8c-0.1-6.6,0-13.2,0-19.8c0-5.3,0-10.6,0-16.2c-1.1,0-2,0-2.9,0
		c-10.5,0-21.1,0-31.6,0c-1.5,0-2.9-0.1-4.3-0.4c-3.8-1-6.5-4.5-6.5-8.5c-0.1-4.1,2.6-7.8,6.4-8.8c1.3-0.3,2.7-0.4,4.1-0.5
		c10.7,0,21.4,0,32.1,0c0.8,0,1.7,0,2.7,0c0-1,0-1.9,0-2.7c0-11,0-22,0-33c0-5.9,4.1-9.9,9.7-9.7c4.2,0.2,7.8,3.4,8.3,7.6
		c0.2,1.1,0.2,2.3,0.2,3.4c0,10.5,0,20.9,0,31.4c0,0.9,0,1.8,0,2.9c1.1,0,1.9,0,2.7,0c10.5,0,20.9,0.1,31.4,0
		c5.6-0.1,9.5,1.9,11.3,7.4C244,190.4,244,191.6,244,192.9z"/>
	<path d="M116.7,191c0,14.6,0,29.2,0,43.8c0,7.2-3.5,10.6-10.6,10.6c-29.3,0-58.6,0-87.9,0c-7.1,0-10.6-3.5-10.6-10.7
		c0-29.3,0-58.6,0-87.9c0-7,3.5-10.5,10.5-10.5c29.4,0,58.8,0,88.1,0c7,0,10.4,3.5,10.4,10.5C116.7,161.6,116.7,176.3,116.7,191z
		 M98.4,154.7c-24.3,0-48.4,0-72.7,0c0,0.9,0,1.7,0,2.4c0,22.5,0,45.1-0.1,67.6c0,2.2,0.7,2.6,2.7,2.6c22.5-0.1,44.9,0,67.4,0
		c0.8,0,1.6,0,2.6,0C98.4,203,98.4,179,98.4,154.7z"/>
</g>
</svg>
