<?xml version="1.0" encoding="utf-8"?>
<!-- Generator: Adobe Illustrator 25.0.1, SVG Export Plug-In . SVG Version: 6.00 Build 0)  -->
<svg version="1.1" id="Capa_1" xmlns="http://www.w3.org/2000/svg" xmlns:xlink="http://www.w3.org/1999/xlink" x="0px" y="0px"
	 viewBox="0 0 512 512" style="enable-background:new 0 0 512 512;" xml:space="preserve">
<g>
	<path d="M489,336.1c0,2.4,0,4.8,0,7.3c-2.5,5.1-6.7,8.2-11.4,11.1c-72.7,45.3-145.4,90.8-218.1,136.2c-2.4,0-4.9,0-7.3,0
		c-2.6-1.5-5.2-3-7.7-4.6c-70.1-43.9-140.2-87.7-210.4-131.5c-4.7-2.9-9-6-11.4-11.1c0-2.4,0-4.8,0-7.3c2.4-5.1,6.7-8.2,11.4-11.1
		c12.7-7.7,25.2-15.6,37.8-23.5c1.3-0.8,2.5-1.7,4.2-2.9c-14.3-8.9-27.9-17.4-41.6-25.8c-4.8-2.9-9.2-6.1-11.8-11.3
		c0-2.4,0-4.8,0-7.3c2.5-5.1,6.7-8.2,11.4-11.1c11.4-6.9,22.6-14,33.9-21.1c2.5-1.6,5-3.2,8-5c-1.7-1.2-2.9-2-4.1-2.8
		c-12.6-7.8-25.1-15.8-37.8-23.4c-4.7-2.9-8.9-6-11.4-11.1c0-2.4,0-4.8,0-7.3c2.5-5.1,6.7-8.2,11.4-11.1
		C104.5,117.4,174.8,73.5,245,29.4c7.7-4.8,14.1-4.8,21.8,0c70.2,44.1,140.5,88,210.8,131.9c4.7,2.9,9,6,11.4,11.1
		c0,2.4,0,4.8,0,7.3c-2.5,5.1-6.7,8.2-11.4,11.1c-12.8,7.8-25.5,15.8-38.2,23.7c-1.2,0.8-2.4,1.6-4,2.7
		c14.4,8.9,28.2,17.5,42.2,25.9c4.7,2.9,9,6,11.4,11.1c0,2.4,0,4.8,0,7.3c-2.4,5.1-6.7,8.2-11.4,11.1c-12.8,7.8-25.5,15.8-38.2,23.7
		c-1.2,0.8-2.4,1.6-4,2.7c14.4,8.9,28.2,17.5,42.2,25.9C482.3,327.8,486.6,330.9,489,336.1z M449.4,176.2c-1.5-1.1-2.5-1.8-3.5-2.4
		c-62.3-39-124.6-77.9-186.9-117c-2.8-1.7-4.5-1.1-6.8,0.3c-61.9,38.8-123.8,77.5-185.7,116.2c-1.2,0.8-2.4,1.6-3.9,2.7
		c1.5,1,2.5,1.8,3.7,2.5c62,38.5,124.1,77.1,186.1,115.7c2.8,1.7,4.6,1.6,7.3-0.1c37.4-23.4,74.9-46.6,112.3-69.9
		C397.5,208.4,423.1,192.5,449.4,176.2z M449.4,339.8c-12.7-7.9-24.8-15.1-36.7-22.7c-2.7-1.7-4.6-1.5-7.2,0.1
		c-45.9,28.6-91.9,57-137.7,85.8c-8.4,5.3-15.3,5.5-23.8,0.1c-45.9-28.9-92.1-57.4-138.1-86.1c-2.8-1.8-4.8-1.9-7.7,0
		c-9,5.9-18.2,11.5-27.3,17.2c-2.8,1.7-5.5,3.5-8.6,5.4c1.5,1,2.3,1.6,3.2,2.2c62.4,39.1,124.9,78.1,187.3,117.2
		c2.8,1.8,4.6,1,6.8-0.5c47.8-29.9,95.6-59.8,143.3-89.7C418.2,359.3,433.5,349.8,449.4,339.8z M62.3,257.8c2.1,1.4,3.5,2.3,4.9,3.1
		c61.5,38.2,123.1,76.4,184.6,114.8c3.2,2,5.4,1.8,8.4-0.1c61.5-38.3,123-76.5,184.6-114.8c1.4-0.8,2.7-1.8,4.4-2.9
		c-1.6-1.1-2.8-1.9-4.1-2.7c-10.6-6.5-21.2-12.9-31.7-19.6c-2.9-1.9-5-1.9-8,0c-46.3,28.9-92.7,57.6-138.9,86.5
		c-7.4,4.6-13.8,4.7-21-0.1c-14-9.1-28.3-17.7-42.4-26.5c-32.4-20.2-64.9-40.3-97.4-60.4c-1.4-0.9-4-1.6-5.1-0.9
		C87.8,241.8,75.4,249.6,62.3,257.8z"/>
</g>
</svg>
