<?xml version="1.0" encoding="utf-8"?>
<!-- Generator: Adobe Illustrator 26.5.1, SVG Export Plug-In . SVG Version: 6.00 Build 0)  -->
<svg version="1.1" id="Capa_1" xmlns="http://www.w3.org/2000/svg" xmlns:xlink="http://www.w3.org/1999/xlink" x="0px" y="0px"
	 viewBox="0 0 253.4 253.4" style="enable-background:new 0 0 253.4 253.4;" xml:space="preserve">
<g>
	<path d="M22.7,242c-0.9-1.1-2.1-2.1-2.6-3.3c-0.7-2.1,1.1-4.4,3.6-4.5c2.1-0.1,4.3,0,6.8,0c0-1.1,0-2.1,0-3c0-47.9,0-95.9,0-143.8
		c0-5,1.1-6.1,6-6.1c9.4,0,18.8,0,28.2,0c0.8,0,1.6,0,2.7,0c0-1,0-1.9,0-2.7c0-9.5,0-19.1,0-28.6c0-4.4,1.2-5.5,5.6-5.5
		c3.3,0,6.5,0,10.2,0c0-1.8,0-3.4,0-5.1c0-3.5,0-7,0-10.5c0-4.2,1.3-5.4,5.5-5.4c4.3,0,8.6,0,12.8,0c0.8,0,1.7,0,2.7,0
		c0-3.2,0-6.3,0-9.3c0-0.9-0.1-1.8,0.1-2.7c0.3-2.2,1.9-3.8,3.9-3.7c2.1,0,3.8,1.6,3.9,4c0.1,3,0,6,0.1,8.9c0,0.8,0,1.7,0,2.7
		c1,0.1,1.8,0.1,2.6,0.1c4.6,0,9.2,0,13.7,0c3.4,0,4.7,1.4,4.7,4.8c0,4.5,0,9,0,13.5c0,0.8,0,1.6,0,2.6c2.7,0,5.2,0,8,0
		c0-2.4,0-4.8,0-7.1c0-3.2-0.1-6.4,0-9.6c0.1-2.6,1.4-3.9,3.9-4.1c0.8-0.1,1.5,0,2.3,0c23.1,0,46.1,0,69.2,0c5.3,0,6.2,1,6.2,6.3
		c0,67.1,0,134.2,0,201.3c0,1,0,2,0,3.2c1.8,0,3.5,0,5.2,0c2.3-0.1,4.3,0.3,5.1,2.8c0.8,2.5-0.8,3.8-2.5,5.1
		C161.3,242,92,242,22.7,242z M214.8,234c0-67.7,0-135.2,0-202.7c-22,0-43.8,0-65.6,0c0,32.5,0,64.8,0,97.2c4.4,0,8.6,0,12.8,0
		c0.8-3.7,1.9-5,4.1-5.1c2.2-0.1,3.3,1.3,4.4,5.2c2.4,0,4.8,0,7.3,0c0.1-0.7,0.2-1.3,0.3-1.9c0.5-2.1,2.2-3.4,4.1-3.3
		c2,0.1,3.4,1.6,3.6,3.8c0.1,0.9,0.1,1.8,0.1,2.7c0,33.7,0,67.5,0,101.2c0,0.9,0.1,1.9,0.1,2.8C195.8,234,205.3,234,214.8,234z
		 M56.9,234c0-0.9,0-1.8,0-2.6c0-4.7,0-9.3,0-14c0-2.8,1.4-4.3,3.9-4.4c7-0.1,14-0.1,21.1,0c2.5,0,3.9,1.7,3.9,4.4
		c0.1,2.5,0,5,0,7.6c0,3,0,5.9,0,8.9c6.3,0,12.2,0,18.2,0c0-48.3,0-96.5,0-144.7c-22,0-43.8,0-65.6,0c0,48.3,0,96.4,0,144.7
		C44.6,234,50.5,234,56.9,234z M112.3,136.7c0,32.6,0,64.9,0,97.3c21.9,0,43.7,0,65.6,0c0-32.5,0-64.9,0-97.3
		C156,136.7,134.2,136.7,112.3,136.7z M112.5,86.5c3.8,0,7.4-0.1,11.1,0c2.7,0.1,4.4,1.7,4.4,3.9c0,2.2-1.8,3.8-4.5,3.9
		c-1.5,0.1-3.1,0-4.6,0c-2.2,0-4.4,0-6.7,0c0,3.9,0.1,7.5,0,11c-0.1,1.8,0.6,2.2,2.2,2.2c3.2-0.1,6.4-0.1,9.6,0c2.4,0.1,4,1.7,4,3.9
		c0,2-1.5,3.6-3.8,3.9c-0.9,0.1-1.8,0.1-2.7,0.1c-3,0-6.1,0-9.3,0c0,3.8,0.1,7.3,0,10.8c-0.1,1.9,0.5,2.5,2.4,2.5c8-0.1,16-0.1,24,0
		c2.1,0,2.7-0.5,2.7-2.7c-0.1-23.7,0-47.5,0-71.2c0-0.8,0-1.6,0-2.4c-22.1,0-43.9,0-65.7,0c0,9.6,0,19.1,0,28.8c1,0,1.8,0,2.6,0
		c9.2,0,18.5,0,27.7,0C110.7,81.2,111.4,81.7,112.5,86.5z M91.2,44.2c11.4,0,22.7,0,34,0c0-4.4,0-8.6,0-12.8c-11.4,0-22.7,0-34,0
		C91.2,35.7,91.2,39.9,91.2,44.2z M67.1,234c0.1-0.4,0.2-0.5,0.2-0.6c0-1.7,0-3.4,0.1-5c0.1-3.1,1.6-4.8,4-4.7
		c2.4,0.1,3.8,1.8,3.9,4.7c0,1.9,0,3.8,0,5.8c1-0.1,1.7-0.2,2.5-0.2c0-4.5,0-8.7,0-12.9c-4.4,0-8.6,0-12.9,0c0,4.4,0,8.6,0,13
		C65.7,234,66.4,234,67.1,234z"/>
	<path d="M201.9,130.1c-0.1,1.1,0,2.3-0.3,3.4c-0.4,1.9-2.2,3.3-4,3c-2-0.3-3.4-1.4-3.6-3.5c-0.1-1.9-0.1-3.8,0-5.7
		c0.1-2.2,1.7-3.8,3.8-3.8c2-0.1,3.7,1.5,4,3.7c0.1,1,0,2,0,3C201.8,130.1,201.8,130.1,201.9,130.1z"/>
	<path d="M186,77.6c-0.1,0.9,0,2-0.2,3.1c-0.3,2-1.7,3.1-3.6,3.2c-1.8,0.1-3.5-0.8-3.7-2.7c-0.3-2.5-0.3-5-0.1-7.5
		c0.2-2,1.9-3,3.8-2.9c2,0.1,3.4,1.3,3.6,3.4C186,75.3,185.9,76.3,186,77.6z"/>
	<path d="M201.9,182.9c-0.1,1,0,2.2-0.3,3.3c-0.4,1.9-2.2,3.3-4,3.1c-2-0.2-3.4-1.4-3.6-3.5c-0.1-2-0.1-4,0-5.9
		c0.1-2.1,1.8-3.7,3.7-3.6c2.1,0,3.5,1.1,3.9,3.2C201.9,180.4,201.8,181.6,201.9,182.9z"/>
	<path d="M194,77c0-0.9-0.1-1.8,0-2.7c0.2-2.1,1.6-3.2,3.6-3.5c1.8-0.2,3.7,1.1,4,3.1c0.3,2.3,0.3,4.6,0,6.8
		c-0.2,2.1-1.8,3.1-3.9,3.2c-2,0-3.5-1.5-3.7-3.6C193.9,79.1,194,78.1,194,77C194,77,194,77,194,77z"/>
	<path d="M162.2,77.3c0-1.1,0-2.1,0.2-3.2c0.3-2,1.6-3.1,3.5-3.3c1.9-0.1,3.6,0.8,3.9,2.8c0.3,2.4,0.3,4.9,0.1,7.3
		c-0.2,1.9-2.2,3.3-4,3c-2-0.3-3.4-1.4-3.5-3.6c-0.1-1,0-2,0-3C162.3,77.3,162.3,77.3,162.2,77.3z"/>
	<path d="M170.2,51c-0.1,1.1,0,2.3-0.3,3.4c-0.5,2-1.8,3.1-4,3c-2.1-0.1-3.4-1.3-3.6-3.4c-0.2-2-0.2-4,0-5.9
		c0.1-2.2,1.7-3.5,3.7-3.6c2-0.1,3.6,1.2,4,3.3c0.2,1,0,2.1,0,3.2C170.1,51,170.2,51,170.2,51z"/>
	<path d="M194,51c0-1-0.1-2,0-3c0.2-2.1,1.4-3.3,3.5-3.5c2-0.2,3.9,1,4.1,3.1c0.3,2.2,0.3,4.4,0,6.6c-0.2,2.1-2,3.3-4,3.2
		c-2-0.1-3.4-1.5-3.6-3.7C193.9,52.8,194,51.9,194,51C194,51,194,51,194,51z"/>
	<path d="M201.9,103.8c-0.1,1,0,2.2-0.3,3.3c-0.5,2-1.9,3.1-4,3c-2.1-0.1-3.4-1.4-3.6-3.5c-0.2-2-0.1-4,0-5.9
		c0.1-2.1,1.4-3.3,3.5-3.5c2-0.2,3.7,1,4.1,3.1C201.9,101.4,201.8,102.6,201.9,103.8z"/>
	<path d="M194,156.4c0-1-0.1-2,0-3c0.2-2.1,1.4-3.3,3.5-3.5c2-0.2,3.9,1,4.1,3.1c0.2,2.2,0.2,4.4,0,6.6c-0.2,2.1-2,3.3-4,3.2
		c-2-0.1-3.4-1.5-3.6-3.7C193.9,158.2,194,157.3,194,156.4C194,156.4,194,156.4,194,156.4z"/>
	<path d="M194,208.8c0-0.9-0.1-1.8,0-2.7c0.2-2.1,1.5-3.3,3.6-3.5c2-0.2,3.8,1.1,4.1,3.2c0.2,2.2,0.2,4.4,0,6.6
		c-0.2,2.1-2,3.3-4.1,3.1c-2.1-0.2-3.3-1.4-3.5-3.5C193.9,210.9,194,209.9,194,208.8z"/>
	<path d="M170.2,103.6c-0.1,1.1,0,2.3-0.2,3.4c-0.4,2.1-2.1,3.3-4.1,3.1c-2.1-0.2-3.4-1.4-3.5-3.5c-0.1-1.9-0.1-3.8,0-5.7
		c0.1-2.2,1.6-3.6,3.6-3.7c2.1-0.1,3.8,1.2,4.1,3.4c0.1,1,0,2,0,3C170.1,103.6,170.2,103.6,170.2,103.6z"/>
	<path d="M186,51.2c-0.1,0.9,0,2-0.2,3c-0.3,1.9-1.5,3-3.4,3.1c-2,0.2-3.7-0.7-4-2.7c-0.4-2.4-0.4-5,0-7.5c0.3-2.1,2-3,4.1-2.8
		c2,0.2,3.2,1.4,3.4,3.4C186,48.9,185.9,50,186,51.2z"/>
	<path d="M186,103.9c-0.1,1,0,2-0.2,3c-0.3,2-1.5,3.1-3.5,3.3c-2.1,0.1-3.7-0.9-4-2.9c-0.3-2.3-0.3-4.7,0-7c0.3-2.1,1.9-3.1,4-3
		c2.1,0.1,3.3,1.4,3.5,3.5c0.1,1.1,0,2.1,0,3.2C185.9,103.9,186,103.9,186,103.9z"/>
	<path d="M59.4,140.6c0,1,0.1,2,0,3c-0.2,2.1-1.6,3.3-3.6,3.5c-1.9,0.1-3.6-0.9-3.9-2.8c-0.3-2.4-0.3-4.9,0-7.3
		c0.2-1.9,2.2-3.2,4-2.9c2,0.3,3.3,1.5,3.5,3.6C59.5,138.6,59.4,139.6,59.4,140.6C59.4,140.6,59.4,140.6,59.4,140.6z"/>
	<path d="M91,140.5c0,1.1,0.1,2.1,0,3.2c-0.2,2-1.6,3.2-3.5,3.3c-1.9,0.2-3.7-0.8-3.9-2.7c-0.3-2.5-0.3-5,0-7.5c0.2-2,1.9-3,3.9-2.8
		c2,0.2,3.4,1.3,3.6,3.5C91.1,138.5,91,139.5,91,140.5C91,140.5,91,140.5,91,140.5z"/>
	<path d="M59.4,193.1c0,1.1,0.1,2.1,0,3.2c-0.2,2-1.8,3.4-3.7,3.4c-2,0-3.6-0.9-3.8-2.9c-0.3-2.4-0.3-4.9,0-7.3
		c0.2-2,1.9-2.9,3.8-2.9c1.9,0,3.4,1.5,3.7,3.5C59.5,191.1,59.4,192.1,59.4,193.1z"/>
	<path d="M67.3,140.4c0.1-1,0.1-2.1,0.2-3.2c0.3-2,1.7-3.1,3.6-3.2c1.8-0.1,3.5,0.8,3.8,2.7c0.3,2.5,0.3,5.2,0,7.7
		c-0.2,1.9-1.9,2.8-3.8,2.7c-1.9-0.1-3.3-1.2-3.6-3.2C67.4,142.7,67.4,141.6,67.3,140.4z"/>
	<path d="M67.4,193.4c0-1.1,0-2.1,0.1-3.1c0.2-2.1,1.5-3.3,3.6-3.6c1.8-0.3,3.7,1,4,3c0.3,2.3,0.3,4.7,0,7c-0.2,2-1.8,2.9-3.8,3
		c-1.9,0.1-3.4-1.4-3.7-3.3C67.4,195.4,67.4,194.3,67.4,193.4z"/>
	<path d="M91,193.2c0,1.1,0.1,2.1,0,3.2c-0.2,1.9-1.8,3.4-3.7,3.4c-2,0-3.6-1-3.8-3c-0.3-2.4-0.3-4.9,0-7.3c0.3-2,1.9-3,3.9-2.8
		c2,0.1,3.4,1.3,3.6,3.5C91.1,191.2,91,192.2,91,193.2C91,193.2,91,193.2,91,193.2z"/>
	<path d="M59.4,114.2c0,1,0.1,2,0,3c-0.2,2.1-1.5,3.3-3.6,3.4c-2.1,0.1-3.7-1-4-3c-0.3-2.2-0.3-4.6,0-6.8c0.2-2.1,2.1-3.3,4.1-3.1
		c2.1,0.2,3.3,1.5,3.5,3.6C59.5,112.2,59.4,113.2,59.4,114.2C59.4,114.2,59.4,114.2,59.4,114.2z"/>
	<path d="M59.4,167.1c0,0.9,0.1,1.8,0,2.7c-0.2,2.1-1.5,3.3-3.6,3.5c-2.1,0.1-3.7-0.9-4-3c-0.3-2.2-0.3-4.6,0-6.8
		c0.2-2.1,2.1-3.3,4.1-3.1c2.1,0.2,3.3,1.4,3.5,3.5C59.5,165,59.4,166.1,59.4,167.1C59.4,167.1,59.4,167.1,59.4,167.1z"/>
	<path d="M91,166.9c0,1,0.1,2,0,3c-0.2,2.1-1.4,3.3-3.5,3.5c-2.1,0.2-3.7-0.9-4-2.9c-0.3-2.3-0.3-4.7,0-7c0.3-2,1.9-3.1,4-3
		c2.1,0.2,3.3,1.4,3.6,3.5C91.1,164.9,91,165.9,91,166.9z"/>
	<path d="M91,114.2c0,1,0.1,2,0,3c-0.2,2.1-1.5,3.3-3.6,3.5c-2.1,0.1-3.7-0.9-4-3c-0.3-2.3-0.3-4.7,0-7c0.3-2.1,1.9-3.1,4-2.9
		c2,0.2,3.2,1.3,3.5,3.3C91.1,112.1,91,113.2,91,114.2C91,114.2,91,114.2,91,114.2z"/>
	<path d="M67.4,166.8c0.1-1,0-2.1,0.2-3.1c0.3-2,1.6-3.1,3.6-3.2c2-0.1,3.6,0.9,3.9,2.8c0.3,2.4,0.3,4.9,0,7.2
		c-0.3,2.1-1.9,3.1-4,2.9c-2-0.2-3.2-1.3-3.5-3.3C67.4,169,67.4,167.9,67.4,166.8z"/>
	<path d="M75.4,114.5c-0.1,1-0.1,2.2-0.4,3.4c-0.5,1.9-1.9,2.9-3.9,2.8c-2-0.1-3.3-1.3-3.5-3.3c-0.2-2-0.2-4.1,0-6.2
		c0.1-2.1,1.4-3.3,3.5-3.5c2.1-0.2,3.7,1,4.1,3.2C75.3,112,75.3,113.1,75.4,114.5z"/>
	<path d="M164.9,185.2c0,11.7,0,23.3,0,35c0,0.9,0,1.8-0.1,2.7c-0.3,1.9-1.5,2.9-3.4,3.1c-1.9,0.2-3.3-0.6-3.9-2.4
		c-0.3-0.9-0.4-1.9-0.4-2.9c0-23.6,0-47.1,0-70.7c0-0.9,0.1-1.8,0.3-2.7c0.6-1.9,2-2.9,4-2.7c1.9,0.2,3.2,1.3,3.5,3.3
		c0.1,0.9,0.1,1.8,0.1,2.7C164.9,162.2,164.9,173.7,164.9,185.2z"/>
	<path d="M133.2,185.2c0,11.7,0,23.3,0,35c0,0.9,0,1.8-0.1,2.7c-0.3,1.9-1.5,3-3.4,3.1c-1.9,0.2-3.3-0.6-3.9-2.4
		c-0.3-0.9-0.4-1.9-0.4-2.9c0-23.6,0-47.1,0-70.7c0-0.9,0.1-1.8,0.3-2.7c0.6-1.9,2-2.9,4-2.7c1.9,0.2,3.2,1.3,3.5,3.3
		c0.1,0.9,0.1,1.8,0.1,2.7C133.2,162.2,133.2,173.7,133.2,185.2z"/>
	<path d="M141.2,185.3c0-11.6,0-23.2,0-34.8c0-0.8,0-1.7,0.1-2.5c0.2-2,1.5-3.2,3.4-3.4c1.9-0.2,3.4,0.7,4,2.6
		c0.3,0.8,0.3,1.6,0.3,2.5c0,23.7,0,47.4,0,71.1c0,1-0.1,2-0.4,2.9c-0.7,1.8-2.1,2.5-4,2.3c-1.9-0.2-3-1.4-3.3-3.3
		c-0.1-0.8-0.1-1.7-0.1-2.5C141.2,208.6,141.2,196.9,141.2,185.3z"/>
	<path d="M108.4,73.4c-4.8,0-9.6,0-14.4,0c-0.9,0-1.9-0.1-2.7-0.3c-1.9-0.6-2.8-2-2.6-4c0.2-1.9,1.3-3.1,3.1-3.4
		c0.9-0.2,1.8-0.2,2.7-0.2c9.2,0,18.3,0,27.5,0c0.5,0,1.1,0,1.6,0c2.7,0.2,4.4,1.7,4.4,4c0,2.2-1.8,3.8-4.5,3.9
		c-2.4,0.1-4.9,0-7.3,0C113.5,73.4,110.9,73.4,108.4,73.4z"/>
</g>
</svg>
