<?xml version="1.0" encoding="utf-8"?>
<!-- Generator: Adobe Illustrator 26.5.1, SVG Export Plug-In . SVG Version: 6.00 Build 0)  -->
<svg version="1.1" id="Capa_1" xmlns="http://www.w3.org/2000/svg" xmlns:xlink="http://www.w3.org/1999/xlink" x="0px" y="0px"
	 viewBox="0 0 253.4 253.4" style="enable-background:new 0 0 253.4 253.4;" xml:space="preserve">
<g>
	<path d="M161.7,248.5c-3.2-0.6-6.4-1.1-9.6-1.8c-7.8-1.7-15-4.9-21.8-9.2c-1.1-0.7-2.6-1.1-3.9-1.1c-34.6-0.1-69.1,0-103.7,0
		c-0.9,0-1.9,0-3.1,0c0-1,0-1.8,0-2.6c0-65.1,0-130.3,0-195.4c0-14.1,8.5-25.2,21.8-28.3c2.1-0.5,4.3-0.7,6.5-0.7
		c46.2,0,92.5-0.1,138.7,0c15.3,0,27.2,11.3,28.3,26.7c0,0.3,0,0.6-0.1,1.2c-4,0-7.9,0-12,0c0,1.1,0,2,0,2.8c0,26.9,0,53.9,0,80.8
		c0,1.7,0.5,2.6,1.9,3.6c20.7,14.4,31,34.3,30.2,59.4c-0.9,31.8-25.5,59-57.2,63.8c-1.8,0.3-3.5,0.6-5.3,0.9
		C168.9,248.5,165.3,248.5,161.7,248.5z M118.5,228.3c-22.4-27.2-25.9-55.9-6.9-86.4c22-28.3,50-35.1,83.3-23.5
		c0-26.9,0-53.9,0-81.1c-1.2,0-2.2,0-3.2,0c-40.3,0-80.7,0-121,0c-2.2,0-3-0.4-3.4-2.8c-1.6-10.2-9.8-17.2-19.6-17.2
		c-11.4,0-20,9-20,21c0,62.5,0,125,0,187.5c0,0.8,0,1.6,0,2.4C58.2,228.3,88.4,228.3,118.5,228.3z M167.1,240.3
		c33.6-0.3,60-27,59.7-60.3c-0.3-32.9-27.3-59.4-60.3-59.1c-33.3,0.4-59.3,27.2-59.1,60.9C107.7,213.9,135,240.6,167.1,240.3z
		 M67.8,17.3c1.9,3.2,4.1,6.2,5.5,9.5c0.9,2,1.8,2.5,3.9,2.5c41.7-0.1,83.5,0,125.2,0c0.8,0,1.7,0,2.9,0c-0.7-1.3-1.1-2.3-1.7-3.1
		c-4.3-6.2-10.3-8.9-17.8-8.9c-38.6,0-77.2,0-115.8,0C69.2,17.3,68.4,17.3,67.8,17.3z"/>
	<path d="M107.1,96.9c-22.7,0-44.9,0-67.3,0c0-15.9,0-31.6,0-47.6c22.4,0,44.7,0,67.3,0C107.1,65.1,107.1,81,107.1,96.9z M99.2,88.9
		c0-10.7,0-21.1,0-31.6c-17.2,0-34.3,0-51.4,0c0,10.6,0,21.1,0,31.6C65,88.9,82,88.9,99.2,88.9z"/>
	<path d="M107.2,113.1c0,2.6,0,5.1,0,7.6c-22.5,0-44.9,0-67.4,0c0-2.5,0-5,0-7.6C62.2,113.1,84.6,113.1,107.2,113.1z"/>
	<path d="M119.3,88.8c0-2.6,0-5,0-7.6c21.2,0,42.3,0,63.6,0c0,2.5,0,5,0,7.6C161.8,88.8,140.7,88.8,119.3,88.8z"/>
	<path d="M119.3,68.9c0-2.6,0-5,0-7.6c21.2,0,42.3,0,63.5,0c0,2.5,0,5,0,7.6C161.7,68.9,140.6,68.9,119.3,68.9z"/>
	<path d="M39.8,132.9c17.1,0,34.2,0,51.4,0c0,2.6,0,5,0,7.7c-17.1,0-34.2,0-51.4,0C39.8,138.1,39.8,135.6,39.8,132.9z"/>
	<path d="M39.8,160.5c0-2.6,0-5.1,0-7.7c17.1,0,34.2,0,51.5,0c0,2.5,0,5.1,0,7.7C74,160.5,57,160.5,39.8,160.5z"/>
	<path d="M144.9,180.7c-7.8-7.8-15.3-15.2-22.5-22.4c7.5-7.5,14.9-15,22.3-22.4c7.3,7.3,14.7,14.7,22.2,22.2
		c7.6-7.7,15-15.1,22.2-22.3c7.7,7.7,15.1,15.1,22.5,22.5c-7.1,7.1-14.6,14.5-22.2,22.1c7.7,7.7,15.1,15.1,22.4,22.3
		c-7.5,7.6-15,15-22.3,22.4c-7.1-7.2-14.5-14.6-22-22c-7.7,7.7-15.1,15.2-22.4,22.5c-7.7-7.8-15.1-15.2-22.5-22.6
		C129.8,195.8,137.2,188.4,144.9,180.7z M167,169.5c-7.6-7.6-15-15-22.3-22.3c-3.7,3.7-7.4,7.4-11.2,11.2
		c7.3,7.3,14.7,14.7,22.5,22.5c-7.5,7.5-15,14.9-22.1,22c3.7,3.7,7.4,7.3,11.2,11.2c7.2-7.2,14.6-14.7,22.1-22.2
		c7.4,7.5,14.8,14.9,21.9,22c3.8-3.8,7.5-7.5,11.6-11.6c-7.2-7.2-14.7-14.5-22.3-22.1c7.5-7.4,14.9-14.8,22.1-22
		c-3.7-3.7-7.4-7.4-11.2-11.1C182.1,154.4,174.7,161.8,167,169.5z"/>
</g>
</svg>
