<?xml version="1.0" encoding="utf-8"?>
<!-- Generator: Adobe Illustrator 26.5.1, SVG Export Plug-In . SVG Version: 6.00 Build 0)  -->
<svg version="1.1" id="Capa_1" xmlns="http://www.w3.org/2000/svg" xmlns:xlink="http://www.w3.org/1999/xlink" x="0px" y="0px"
	 viewBox="0 0 266.4 267.5" style="enable-background:new 0 0 266.4 267.5;" xml:space="preserve">
<g id="Capa_2_00000056398407898831064420000016738431907528920501_">
	<g id="Capa_1-2">
		<path d="M250.4,227.8c-1.9,4.3-5.2,5.6-9.8,5.6c-21.9-0.1-43.9-0.1-65.8-0.1h-2.8c-2,9.4-7.6,17.6-15.6,22.9
			c-6.1,4.1-13.3,6.3-20.6,6.2c-15.5-0.1-31.2-10.4-35.7-29.1h-2.8c-22.2,0-44.5,0-66.7,0c-6.2,0-9.2-3.2-8.7-9.4
			c0.2-4.3,1.6-8.4,4-11.9c1.8-2.5,3.9-4.9,6.2-6.9c10.8-9.5,19.6-20.5,25.6-33.6c4.9-11.1,8.3-22.8,10-34.8
			c1.8-12.1,2.6-24.2,2.6-36.4c0.3-30.4,21.4-56.5,50.9-63.3c19.1-4.3,36.9-0.8,52.9,10.6c13.3,9.2,22.5,23.2,25.9,39
			c1,5,1.6,10.1,1.6,15.3c0.4,13.5,1,26.9,3.5,40.2c2.9,15.5,7.8,30.4,17.1,43.4c4.2,5.8,8.9,11.3,14.1,16.3
			c6.3,6,12.3,11.8,13.8,20.9L250.4,227.8z M232.2,218.3c-0.1-0.2-0.3-0.4-0.4-0.6c-0.9-0.9-1.8-1.7-2.8-2.6
			c-18.5-16.6-30.3-37.1-36.3-61.2c-4-16.2-5.4-32.6-5.7-49.3c0-4.7-0.3-9.4-1.2-14c-5.6-26.6-30-43.9-56.8-39.9
			c-19.3,2.8-32.7,13.9-40.2,32c-3.3,7.9-3.4,16.2-3.5,24.5c-0.1,14.1-1.6,28.1-4.5,41.9c-5.7,26.5-18.2,49.1-38.7,67.1
			c-0.6,0.6-1.2,1.2-2.2,2.1H232.2z M116.2,233.5c2.1,8.2,11.5,14.4,21.1,14c8.5-0.4,17.5-7.1,18.7-14H116.2z"/>
	</g>
</g>
<g>
	<path d="M59.3,32.1C46.5,52.2,37.4,73.9,31.6,96.9c-1.8,7.3,1.8,13.8,8.6,15.5c6.6,1.6,12.9-2.2,14.8-9.3C60,83.6,67.5,65,78,47.7
		c2.6-4.3,2.6-8.9-0.1-13.1c-3.3-5.2-8.4-6.2-14.1-5.1C62.3,30.4,60.8,31.3,59.3,32.1z"/>
</g>
<g>
	<path d="M212,32.1c12.8,20.1,21.9,41.7,27.7,64.8c1.8,7.3-1.8,13.8-8.6,15.5c-6.6,1.6-12.9-2.2-14.8-9.3
		c-5.1-19.6-12.6-38.1-23.1-55.5c-2.6-4.3-2.6-8.9,0.1-13.1c3.3-5.2,8.4-6.2,14.1-5.1C209,30.4,210.5,31.3,212,32.1z"/>
</g>
</svg>
