<?xml version="1.0" encoding="utf-8"?>
<!-- Generator: Adobe Illustrator 25.0.1, SVG Export Plug-In . SVG Version: 6.00 Build 0)  -->
<svg version="1.1" id="Capa_1" xmlns="http://www.w3.org/2000/svg" xmlns:xlink="http://www.w3.org/1999/xlink" x="0px" y="0px"
	 viewBox="0 0 351 328" style="enable-background:new 0 0 351 328;" xml:space="preserve">
<g>
	<path d="M303.4,314.9c-3.1-2.3-6.5-4.3-9.2-6.9c-25.9-25.8-51.7-51.7-77.6-77.6c-0.8-0.8-1.3-1.9-2-2.9c-1.7,1.2-2.7,1.9-3.7,2.6
		c-15,11.4-31.8,18.9-50.4,21.9c-36.7,5.8-69.2-3.6-97-28.3C43,205.3,30.6,182.2,26.4,155c-4.2-27.1,0.8-52.7,14.7-76.3
		c12.9-22,31.2-37.9,54.4-48.1c11.3-5,23.2-8.1,35.6-8.9c0.7-0.1,1.5-0.3,2.2-0.5c5.2,0,10.3,0,15.5,0c3.3,0.4,6.6,0.8,9.9,1.3
		c27.1,4.6,50.2,16.6,68.5,37.3c24.7,27.8,34.1,60.4,28.3,97.2c-2.9,18.2-10.1,34.7-21.1,49.6c-1,1.3-1.9,2.6-3.3,4.4
		c1,0.8,2,1.4,2.8,2.2c25.8,25.8,51.6,51.6,77.3,77.5c2.7,2.8,4.8,6.3,7.1,9.4c0,1.7,0,3.4,0,5.2c-1.6,4.9-4.9,8.1-9.7,9.8
		C306.8,314.9,305.1,314.9,303.4,314.9z M232.8,137.4c0-50.5-41.3-91.7-91.7-91.7c-50.5,0-91.7,41.3-91.6,91.8
		c0.1,50.3,40.4,91.6,91.6,91.8C191.5,229.3,232.8,187.8,232.8,137.4z"/>
</g>
</svg>
