<?xml version="1.0" encoding="utf-8"?>
<!-- Generator: Adobe Illustrator 25.0.1, SVG Export Plug-In . SVG Version: 6.00 Build 0)  -->
<svg version="1.1" id="Capa_1" xmlns="http://www.w3.org/2000/svg" xmlns:xlink="http://www.w3.org/1999/xlink" x="0px" y="0px"
	 viewBox="0 0 202.1 276.6" style="enable-background:new 0 0 202.1 276.6;" xml:space="preserve">
<g id="Capa_2_1_">
	<g id="Capa_1-2">
		<path d="M69.8,276.6c-4.9-1-9.9-1.7-14.7-3c-32.2-9.2-54.6-38.5-54.9-72c-0.2-34.6,0-69.1,0-103.7c0-5.7,3.2-8.9,8.9-8.9
			c11.3-0.1,22.7,0,34,0h3.5v-3.1c0-11.1,0.3-22.2-0.1-33.2c-1-26.3,17.5-44.2,37.2-50c3.8-1.1,7.7-1.8,11.5-2.6H107
			c4,0.9,8.1,1.5,12,2.8c18.8,6.4,31.5,18.6,35.8,38.6c0.6,3,0.8,6.1,0.8,9.1c0.1,11.7,0,23.4,0,35.1v3.3h3.5c11.2,0,22.3,0,33.5,0
			c6.5,0,9.6,3.1,9.6,9.6c0,33.7,0,67.3,0,101c-0.1,39-26.9,70.3-65.4,76.4c-1.4,0.2-2.8,0.5-4.2,0.7L69.8,276.6z M185.9,105.3H16.3
			v2.1c0,31.3,0,62.7,0,94c0,2.9,0.3,5.8,0.7,8.6c5.1,29.8,29.6,50.4,59.8,50.4c16.2,0,32.4,0,48.6,0c3.4,0,6.8-0.2,10.2-0.8
			c30-5.4,50.2-29.7,50.2-60.2c0-30.3,0-60.7,0-91V105.3z M139.4,88.7V50.3c0-9.9-3.9-18-11.4-24.4c-13-11.2-33.5-13-48.2-4.1
			c-11.3,6.8-17.4,16.5-17.1,30c0.2,11.3,0,22.7,0.1,34c0,1,0.1,1.9,0.1,2.8L139.4,88.7z"/>
		<path d="M93,182.9c0-5.4,0-10.8,0-16.2c0-5.2,3.5-8.9,8.2-8.8s8,3.8,8,8.8c0,10.8,0,21.6,0,32.4c0,5.1-3.4,8.6-8.1,8.6
			S93,204.1,93,199C92.9,193.6,93,188.3,93,182.9z"/>
	</g>
</g>
</svg>
