<?xml version="1.0" encoding="utf-8"?>
<!-- Generator: Adobe Illustrator 26.5.1, SVG Export Plug-In . SVG Version: 6.00 Build 0)  -->
<svg version="1.1" id="Capa_1" xmlns="http://www.w3.org/2000/svg" xmlns:xlink="http://www.w3.org/1999/xlink" x="0px" y="0px"
	 viewBox="0 0 404.4 414.6" style="enable-background:new 0 0 404.4 414.6;" xml:space="preserve">
<g>
	<path d="M305.6,28.9c9.7,2.7,19.8,4.5,29,8.4c50.1,20.8,75.7,73,63.1,127.5c-8.6,37.3-27.8,69.1-51.4,98.4
		c-31.9,39.6-68.6,74-113.3,98.5c-31.3,17.2-30.5,17.8-60.8,0.2C105.6,323.1,52.9,270.3,19,200.3C5.9,173.2-0.4,144.4,5.9,114
		c9-43.1,45.3-77.5,88.7-83.9c1.5-0.2,2.9-0.8,4.3-1.3c8,0,15.9,0,23.9,0c1,0.4,2,0.9,3.1,1.1c23,3.1,42.8,12.8,59.6,28.8
		c11.5,10.9,22.1,10.9,33.6,0c10.9-10.3,23.1-18.5,37.3-23.2c8.3-2.8,16.9-4.5,25.4-6.7C289.7,28.9,297.7,28.9,305.6,28.9z
		 M374.5,140.5c0.1-31.9-14.6-58.3-38.4-72.9c-31.7-19.3-70.6-15.5-97.9,9.8c-8.3,7.7-17.3,13.7-28.7,15.3
		c-17.4,2.4-31.2-4.2-43.7-15.9c-28.3-26.4-71.2-28.6-102.3-5.6c-29.7,21.9-40.2,56.3-28.8,95.5c9.3,32,27.1,59.4,48.3,84.6
		c31.1,37,66.4,69,109.6,91.7c7.1,3.7,12.9,3.4,19.8-0.1c22-11.2,41.8-25.6,60.3-41.7c35-30.4,65.5-64.4,86.4-106.4
		C368.1,176.6,374.1,157.5,374.5,140.5z"/>
	<path d="M188.7,210.3c0-21.8,0-43.6,0-65.4c-11.9-2-17-6.9-16.1-15.2c0.8-8.2,6.6-11.9,18.2-12c8.6,0,17.2-0.1,25.8,0
		c9.4,0.1,15.2,4.8,15.6,12.6c0.4,7.8-4.9,12.9-14.3,14c-0.6,0.1-1.2,0.3-1.9,0.5c0,21.9,0,43.7,0,65.5
		c16.4,0.1,30.2-12.1,31.5-28.4c0.8-10.6,0.3-21.2,0.6-31.8c0.5-16.8,11-29.5,26.2-32.1c10.1-1.7,17.8,3.5,18.2,12.3
		c0.3,6.4-3.7,12.5-10.4,13.4c-6.6,0.9-7.7,4.5-7.6,10c0.1,8.6,0.3,17.3-0.2,25.9c-1.5,31.8-23.3,54.5-54.9,57.6
		c-1.1,0.1-2.1,0.2-3.4,0.4c0,13,0,25.8,0,39c1.6,0.2,3.3,0.4,4.9,0.7c6.8,1.2,11.6,6.7,11.4,13.4c-0.2,6.7-5.1,12.5-12,12.8
		c-11.9,0.4-23.8,0.4-35.7,0c-6.9-0.3-11.8-6.1-12-12.8c-0.2-6.6,4.6-12.2,11.4-13.4c1.5-0.3,3-0.3,4.9-0.4c0-13.1,0-26.1,0-39.3
		c-13-0.8-24.9-4.2-35.1-12.3c-14.1-11.2-22.2-25.6-23.1-43.7c-0.5-9.9-0.3-19.9-0.3-29.8c0-4.3-1.4-6.8-6.2-7.6
		c-8.2-1.4-12.7-7.8-11.6-15c1.1-7.3,7.2-11.6,15.5-11.2c14.1,0.8,26.9,12.4,28.2,27c1.1,12.1,0.3,24.3,1.1,36.4
		C158.3,198,172,210.4,188.7,210.3z"/>
</g>
</svg>
