<?xml version="1.0" encoding="utf-8"?>
<!-- Generator: Adobe Illustrator 26.5.1, SVG Export Plug-In . SVG Version: 6.00 Build 0)  -->
<svg version="1.1" id="Capa_1" xmlns="http://www.w3.org/2000/svg" xmlns:xlink="http://www.w3.org/1999/xlink" x="0px" y="0px"
	 viewBox="0 0 404.4 414.6" style="enable-background:new 0 0 404.4 414.6;" xml:space="preserve">
<g>
	<path d="M400.6,198.8c-7.8,16.6-15.6,33.2-23.3,49.8c-14,30.2-28,60.5-42.1,90.7c-3.1,6.7-5.5,7.7-12.1,4.5
		c-25.4-12.2-51.9-20.9-79.7-25.7c-55.3-9.6-108.5-3.3-159.2,21.5c-12.1,5.9-12.3,5.9-18-6.4c-20.2-43.6-40.4-87.2-60.6-130.8
		c-3.1-6.7-2.8-7.7,2.7-12.6C24.6,174.9,42.5,162,62,151.5c2.8-1.5,3.7-3.3,3.6-6.3c-0.7-15.9,2.1-31,10.7-44.5
		c14.5-22.8,35.5-34.4,62.5-34.7c27.8-0.3,55.6-0.1,83.3-0.1c14.2,0,28.4,0,42.6,0c41.8,0.1,73.7,31.9,73.5,73.8
		c0,7.5,2.2,11.3,8.7,14.8c18.5,9.8,34.9,22.6,50.3,36.7c1.2,1.1,2.2,2.5,3.3,3.7C400.6,196.2,400.6,197.5,400.6,198.8z
		 M386.7,198.6c-101.7-94.3-269.5-93-369.3,0c16.9,36.5,33.8,73,50.9,109.7c42.2-21.5,86.6-31.7,133.4-30.8
		c46.8,0.8,91,12.5,133.2,32.9C352.3,272.8,369.5,235.6,386.7,198.6z M78.2,142.8c82.7-36,165.2-36,247.6-0.1
		c2.7-30.9-20.8-63.5-57.4-64.2c-44.2-0.9-88.4-0.6-132.6-0.1C102.2,78.9,75.9,108.7,78.2,142.8z M329.7,321.5
		c-85.4-39.6-170.5-44-256.3-2.2c1.6,3.4,2.9,6.3,4.4,9.5c83-39.7,165.5-34,247.7,2C326.8,327.8,328.1,325,329.7,321.5z"/>
	<path d="M220.6,184c9.8,0,19.1,0,28.3,0c7,0,8.9,1.9,8.9,9.1c0,6.9,0,13.7,0,20.6c0,5.3-2.3,7.6-7.6,7.6c-9.7,0.1-19.4,0-29.7,0
		c0,1.4,0,2.6,0,3.8c0,8.7,0,17.3,0,26c0,5.1-2.4,7.4-7.4,7.4c-7.5,0.1-15,0.1-22.5,0c-5-0.1-7.3-2.4-7.3-7.5
		c-0.1-9.8,0-19.6,0-29.8c-9.6,0-18.9,0-28.1,0c-7.2,0-9.1-1.9-9.1-9.3c0-6.7,0-13.5,0-20.2c0-5.5,2.3-7.8,7.8-7.8
		c9.7,0,19.3,0,29.5,0c0-5.3,0-10.3,0-15.3c0-4.5,0-9.1,0-13.6c0-6.3,2.1-8.4,8.4-8.4c7,0,14,0,20.9,0c5.7,0,7.9,2.2,7.9,8.1
		C220.7,164.3,220.6,173.9,220.6,184z M158.7,208.9c1.6,0,2.8,0,4.1,0c8.3,0,16.5,0,24.8,0c6.1,0,8.2,2.1,8.3,8.1
		c0,5.7,0,11.4,0,17.1c0,4,0,7.9,0,11.8c4.4,0,8.4,0,12.4,0c0-10,0-19.7,0-29.4c0-5.3,2.3-7.5,7.6-7.6c1.5,0,3.1,0,4.6,0
		c8.2,0,16.4,0,24.7,0c0-4.4,0-8.3,0-12.4c-9.3,0-18.3,0-27.3,0c-7.9,0-9.6-1.7-9.6-9.5c0-9.1,0-18.3,0-27.6c-4.3,0-8.2,0-12.4,0
		c0,9.9,0,19.6,0,29.3c0,5.5-2.3,7.7-7.8,7.8c-6.1,0-12.1,0-18.2,0c-3.7,0-7.4,0-11.1,0C158.7,200.8,158.7,204.5,158.7,208.9z"/>
	<path d="M76,267.3c-1.4,1.5-2.7,4-4.6,4.6c-1.9,0.6-4.5-0.6-6.6-1.4c-0.8-0.3-1.2-1.6-1.6-2.6C57,254.5,50.7,241,44.5,227.5
		c-2-4.5-1.1-8,2.4-9.6c3.5-1.6,6.7-0.1,8.8,4.4c6.2,13.3,12.4,26.7,18.5,40C74.8,263.6,75.2,265,76,267.3z"/>
	<path d="M189.6,96.8c0.1,3.3-2.7,6.3-6,6.3c-3.3,0.1-6.2-2.8-6.2-6.1c0-3.2,2.7-5.9,5.8-6.1C186.4,90.7,189.4,93.5,189.6,96.8z"/>
	<path d="M214.4,97c0,3.3-2.9,6.2-6.2,6.2c-3.3,0-6.2-3-6.1-6.3c0.1-3.2,2.8-5.9,6-6C211.4,90.8,214.4,93.6,214.4,97z"/>
	<path d="M226.9,96.8c0.1-3.3,3.1-6.1,6.4-5.9c3.2,0.2,5.9,3,5.9,6.1c0,3.3-3,6.2-6.2,6.1C229.7,103.1,226.8,100.1,226.9,96.8z"/>
</g>
</svg>
