<?xml version="1.0" encoding="utf-8"?>
<!-- Generator: Adobe Illustrator 26.5.1, SVG Export Plug-In . SVG Version: 6.00 Build 0)  -->
<svg version="1.1" id="Capa_1" xmlns="http://www.w3.org/2000/svg" xmlns:xlink="http://www.w3.org/1999/xlink" x="0px" y="0px"
	 viewBox="0 0 253.4 253.4" style="enable-background:new 0 0 253.4 253.4;" xml:space="preserve">
<style type="text/css">
	.st0{fill:#F27222;}
	.st1{fill:#FFFFFF;}
</style>
<g id="Capa_2_00000040551244893986186970000014463200069848423860_">
	<g id="Capa_1-2">
		<circle class="st0" cx="126.7" cy="126.7" r="126.7"/>
	</g>
</g>
<g>
	<path class="st1" d="M196.6,71.8c-0.3,0-0.4,0-0.5-0.1c-0.4-0.4-0.7-0.7-1.1-1.1C172.4,47.4,144.9,38,113,44.4
		c-28.5,5.7-49,22.5-61.7,48.7c-8.5,17.5-10.3,36-6.6,55c0.2,0.9,0.5,1.9,1,2.7c1,1.5,2.8,1.9,4.4,1.1c1.7-0.8,2.4-2.4,1.9-4.6
		c-2.4-11.5-2.4-23.1,0.2-34.5c8.9-39.9,46.7-67,87.2-62.5c20.8,2.3,38,11.5,51.9,27.1c0.4,0.5,0.8,0.9,1.4,1.7c-1,0-1.5,0-2.1,0
		c-6,0-12,0-18,0c-3,0-6,0-9.1,0c-2,0-3.5,1.6-3.5,3.5c0,2,1.4,3.6,3.5,3.8c0.3,0,0.7,0,1,0c11.6,0,23.2,0,34.8,0
		c3.3,0,4.5-1.2,4.5-4.6c0-9,0-18,0-26.9c0-2.8,0-5.7,0-8.6c0-1.6-0.6-2.7-2.1-3.5c-2.5-1.2-5.2,0.6-5.2,3.7c0,7.8,0,15.7,0,23.5
		C196.6,70.6,196.6,71.2,196.6,71.8z"/>
	<path class="st1" d="M60.4,218.1c-1.9-1.1-2.5-2.8-2.5-5c0-11.4-0.2-22.7-0.3-34.1c0-3.6,1.1-4.8,4.8-4.8c11.4,0,22.7,0,34.1,0
		c0.2,0,0.3,0,0.5,0c2.7,0,4.4,1.5,4.4,3.7c0,2.2-1.7,3.6-4.3,3.6c-8.7,0-17.4,0-26.1,0c-0.6,0-1.2,0-2.2,0c0.5,0.6,0.7,1.1,1,1.4
		c18.1,20.2,40.8,29.7,67.9,27.5c34.8-2.7,63.8-28.4,71.4-62.5c2.6-11.5,2.7-23,0.1-34.5c-0.4-1.6-0.2-3.1,1.1-4.2
		c1.1-0.9,2.6-1.3,3.8-0.5c0.9,0.7,1.9,1.8,2.1,2.9c0.8,3.8,1.2,7.7,1.8,11.5c0.1,0.5,0.2,1.1,0.3,1.6c0,3.7,0,7.3,0,11
		c-0.1,0.5-0.2,0.9-0.3,1.3c-0.6,4-1,8.1-1.8,12c-7.1,34.2-36,61.9-70.4,67.6c-3.3,0.5-6.6,0.9-9.8,1.4c-3.7,0-7.3,0-11,0
		c-1-0.1-2-0.3-3-0.4c-21.5-2.4-39.9-11.3-55-26.9c-0.6-0.7-1.3-1.3-2.3-2.3c0,1,0,1.6,0,2.2c0.1,7.6,0.1,15.1,0.3,22.6
		c0,2.3-0.6,3.9-2.8,4.8C61.8,218.1,61.1,218.1,60.4,218.1z"/>
	<path class="st1" d="M196.6,71.8c0-0.6,0-1.2,0-1.8c0-7.8,0-15.7,0-23.5c0-3.1,2.7-4.9,5.2-3.7c1.4,0.7,2.1,1.9,2.1,3.5
		c0,2.8,0,5.7,0,8.6c0,9,0,18,0,26.9c0,3.3-1.2,4.6-4.5,4.6c-11.6,0-23.2,0-34.8,0c-0.3,0-0.7,0-1,0c-2.1-0.2-3.6-1.8-3.5-3.8
		c0-1.9,1.5-3.4,3.5-3.5c3-0.1,6,0,9.1,0c6,0,12,0,18,0c0.5,0,1.1,0,2.1,0c-0.6-0.8-1-1.2-1.4-1.7c-13.9-15.6-31.2-24.7-51.9-27.1
		c-40.5-4.6-78.2,22.5-87.1,62.4c-2.6,11.5-2.6,23-0.2,34.5c0.5,2.2-0.2,3.8-1.9,4.6c-1.6,0.7-3.5,0.4-4.4-1.1
		c-0.5-0.8-0.8-1.8-1-2.7c-3.8-19-1.9-37.5,6.6-55C64,66.9,84.6,50.1,113,44.3c31.9-6.4,59.3,2.9,82.1,26.2c0.4,0.4,0.7,0.7,1.1,1.1
		C196.2,71.8,196.3,71.8,196.6,71.8z"/>
</g>
</svg>
