<?xml version="1.0" encoding="utf-8"?>
<!-- Generator: Adobe Illustrator 25.0.1, SVG Export Plug-In . SVG Version: 6.00 Build 0)  -->
<svg version="1.1" id="Capa_1" xmlns="http://www.w3.org/2000/svg" xmlns:xlink="http://www.w3.org/1999/xlink" x="0px" y="0px"
	 viewBox="0 0 351 328" style="enable-background:new 0 0 351 328;" xml:space="preserve">
<g>
	<path d="M232.1,311.3c-40.5,0-80.9,0-121.4,0c-8.4-2.7-11.5-8.7-11.1-17.3c0.3-5.8,0.1-11.6,0.1-17.3c0-0.9,0-1.7,0-2.7
		c-7.7,0-14.9,0-22.1,0c-1.5,0-3.1,0-4.6-0.4c-6.8-1.6-10.5-7-10.5-14.8c0-58.5,0-117,0-175.5c0-12.9,0-25.9,0-38.8
		c0-4.2,1-8.1,4.2-10.9c1.9-1.7,4.5-2.7,6.8-4c59.3,0,118.6,0,178,0c8.3,2.7,11.5,8.5,11.1,17c-0.3,5.9-0.1,11.7-0.1,17.6
		c0,0.9,0.1,1.7,0.1,2.7c7.6,0,14.8,0,22,0c9.7,0,15.2,5.5,15.2,15.2c0,53.3,0,106.6,0,159.9c0,9.9-3.7,18.4-10.9,25.3
		c-11.7,11.2-23.5,22.3-35.4,33.3c-2.7,2.5-5.9,4.7-9.2,6.3C240.3,308.8,236.1,309.9,232.1,311.3z M231.9,300.8c0-1.2,0-2.3,0-3.4
		c0-9.9,0-19.8,0-29.7c0-2.2,0.1-4.4,0.6-6.5c2.3-8.9,9.3-14.2,18.7-14.3c10.9-0.1,21.8,0,32.7,0c5.5,0,5.5,0,5.5-5.7
		c0-52.7,0-105.4,0-158.2c0-5.3-0.7-5.9-6.1-5.9c-55.8,0-111.6,0-167.5,0c-5.3,0-6,0.7-6,6.1c0,70.7,0,141.4,0,212.1
		c0,5.2,0.7,5.9,5.8,5.9c36.9,0,73.8,0,110.6,0C228.1,301.1,229.8,300.9,231.9,300.8z M252.2,67c0-7.2,0-13.9,0-20.7
		c0-5.9-0.5-6.5-6.4-6.5c-55.6,0-111.3,0-166.9,0c-0.9,0-1.8,0-2.7,0.1c-2.1,0.2-3.3,1.3-3.5,3.5c-0.1,1,0,2,0,3
		c0,65.4,0,130.8,0,196.2c0,5.5,0,11,0,16.5c0,3.7,1.1,4.8,4.7,4.8c5,0,10.1,0,15.1,0c2.3,0,4.7,0,7.2,0c0-1.5,0-2.6,0-3.6
		c0-59.1,0.1-118.1-0.1-177.2c0-9.5,5.7-16.3,16.3-16.2C160,67.1,204.1,67,248.3,67C249.4,67,250.6,67,252.2,67z M284.5,257.3
		c-1.1-0.2-1.3-0.3-1.6-0.3c-10.6,0-21.2-0.1-31.8,0c-5.8,0.1-9,3.6-9.1,9.5c0,9.3,0,18.7,0,28c0,0.6,0.1,1.2,0.3,2.6
		C256.6,283.7,270.3,270.7,284.5,257.3z"/>
	<path d="M199.8,124.7c-15.2,0-30.4,0-45.5,0c-0.5,0-1.1,0-1.6,0c-4.5,0-7.1-1.9-7.1-5.1c0-3.3,2.5-5.1,7.1-5.1
		c31.5,0,62.9,0,94.4,0c1.1,0,2.2,0.1,3.2,0.4c2.4,0.7,3.6,2.5,3.6,4.9c0,2.3-1.3,4-3.6,4.6c-1.2,0.3-2.5,0.4-3.8,0.4
		C230.8,124.7,215.3,124.7,199.8,124.7z"/>
	<path d="M199.6,158.6c-15.6,0-31.3,0-46.9,0c-4.7,0-7.1-1.7-7.2-4.9c-0.1-3.4,2.4-5.2,7.2-5.2c31.4,0,62.7,0,94.1,0c1,0,2,0,3,0.2
		c2.5,0.5,4.1,2.7,4,5.2c-0.1,2.4-1.8,4.2-4.3,4.6c-1.1,0.2-2.2,0.2-3.3,0.2C230.7,158.6,215.1,158.6,199.6,158.6z"/>
	<path d="M199.7,192.5c-16,0-32,0-48,0c-3.4,0-5.2-1.2-5.9-3.7c-0.8-2.9,0.9-5.7,3.8-6.2c1.1-0.2,2.2-0.2,3.3-0.2
		c31.2,0,62.4,0,93.5,0c1,0,2,0,3,0.1c2.6,0.4,4.4,2.3,4.4,4.8c0.1,2.4-1.7,4.6-4.2,5c-1,0.2-2,0.1-3,0.1
		C231,192.5,215.4,192.5,199.7,192.5z"/>
	<path d="M177.8,226.5c-8.7,0-17.4,0-26.1,0c-4.7,0-7.4-3.6-5.6-7.3c1.2-2.5,3.5-3,6-3c7,0,14.1,0,21.1,0c9.8,0,19.6,0,29.3,0
		c1.3,0,2.6,0.1,3.8,0.4c2.1,0.6,3.3,2.2,3.4,4.5c0.1,2.4-1,4.1-3.2,4.9c-1.2,0.4-2.5,0.5-3.8,0.5
		C194.4,226.5,186.1,226.5,177.8,226.5z"/>
</g>
</svg>
